<?xml version="1.0" encoding="UTF-8" standalone="no"?>
<!DOCTYPE svg PUBLIC "-//W3C//DTD SVG 1.1//EN" "http://www.w3.org/Graphics/SVG/1.1/DTD/svg11.dtd">
<svg width="100%" height="100%" viewBox="0 0 413 382" version="1.1" xmlns="http://www.w3.org/2000/svg" xmlns:xlink="http://www.w3.org/1999/xlink" xml:space="preserve" xmlns:serif="http://www.serif.com/" style="fill-rule:evenodd;clip-rule:evenodd;stroke-linejoin:round;stroke-miterlimit:2;">
    <path d="M31.067,285.974C28.046,279.899 25.025,273.823 22.366,267.374C23.978,266.819 25.229,266.636 26.473,266.455C27.538,272.878 27.539,272.845 33.897,273.025C35.364,273.067 36.83,273.378 38.282,273.643C41.243,274.184 41.74,276.328 40.563,278.459C37.409,284.169 41.962,288.304 43.33,293.013C44.335,296.473 46.364,299.636 48.087,303.246C50.065,302.879 53.435,302.254 56.804,301.629C58.042,301.206 58.716,299.347 60.037,298.319C63.322,295.762 66.902,293.585 70.554,291.438C70.832,291.774 70.918,291.926 71.038,292.394C71.508,293.101 71.943,293.493 72.612,294.085C73.535,295.275 74.223,296.265 74.75,297.575C74.511,300.957 74.433,304.019 74.341,307.309C74.327,307.538 74.14,307.957 73.842,308.178C73.752,309.949 73.96,311.499 74.331,313.322C74.938,314.542 75.381,315.49 75.805,316.592C75.785,316.747 75.964,317.003 75.984,317.355C77.997,319.815 79.991,321.923 81.991,324.015C81.998,323.998 81.968,324.02 82.164,324.288C83.191,324.803 84.023,325.051 84.902,325.265C84.95,325.232 84.833,325.223 85.078,325.51C89.086,325.797 92.85,325.797 96.939,325.993C101.176,332.157 107.175,329.465 112.601,329.871C112.769,329.895 112.994,330.147 112.826,330.434C108.919,335.554 105.138,340.356 101.471,345.243C100.554,346.466 100.001,347.964 99.281,349.335C100.706,349.603 102.125,349.904 103.557,350.13C105.654,350.462 107.845,350.485 109.825,351.151C110.796,351.477 111.38,352.955 111.292,352.844C109.284,354.771 108.142,355.867 106.65,356.927C100.545,353.55 94.792,350.209 88.937,346.637C88.374,346.235 87.912,346.064 87.239,345.599C82.725,342.186 78.421,339.068 73.956,335.653C68.576,330.881 63.356,326.405 58.056,321.593C54.989,317.836 52.002,314.416 48.964,310.731C48.628,310.264 48.343,310.061 47.953,309.537C45.597,306.144 43.346,303.072 41.442,299.995C42.38,299.828 42.973,299.666 43.51,299.52C42.526,297.939 41.845,296.374 40.718,295.26C40.249,294.798 38.827,295.301 37.621,295.303C37.403,295.241 36.977,295.088 36.954,294.832C36.678,294.364 36.425,294.154 36.118,293.657C35.697,292.952 35.33,292.533 34.963,292.114C34.835,291.801 34.707,291.488 34.305,290.796C33.779,290.164 33.527,289.912 33.275,289.66C33.275,289.66 33.261,289.808 33.238,289.442C32.499,288.043 31.783,287.008 31.067,285.974Z" style="fill:rgb(50,40,98);fill-rule:nonzero;"/>
    <path d="M70.363,291.256C66.902,293.585 63.322,295.762 60.037,298.319C58.716,299.347 58.042,301.206 56.804,301.629C53.435,302.254 50.065,302.879 48.087,303.246C46.364,299.636 44.335,296.473 43.33,293.013C41.962,288.304 37.409,284.169 40.563,278.459C41.74,276.328 41.243,274.184 38.282,273.643C36.83,273.378 35.364,273.067 33.897,273.025C27.539,272.845 27.538,272.878 26.473,266.455C25.229,266.636 23.978,266.819 22.344,267.012C21.961,267.023 21.997,267.023 21.986,266.662C21.349,265.202 20.723,264.103 20.097,263.004C19.705,262.29 19.313,261.577 18.939,260.145C21.417,250.177 18.722,242.73 11.11,237.003C10.973,236.605 10.837,236.206 10.928,235.349C10.82,234.262 10.482,233.634 10.145,233.006C9.277,228.322 8.408,223.638 7.911,218.5C8.523,218.031 8.762,218.016 9.066,218.359C10.42,219.145 11.709,219.573 12.999,220.334C12.999,221.112 12.999,221.556 12.714,222.268C11.597,226.97 11.41,231.803 16.133,233.695C21.766,235.951 22.625,240.429 24.145,245.203C25.003,247.895 27.399,252.22 28.974,252.164C33.701,251.996 36.007,255.33 39.383,257.071C40.823,257.813 42.704,257.7 44.385,257.976C44.199,257.499 44.013,257.022 43.828,256.546C45.183,255.366 46.539,254.186 48.08,253.175C48.52,253.558 48.774,253.773 49.06,254.348C56.183,266.891 63.273,279.074 70.363,291.256Z" style="fill:rgb(55,44,103);fill-rule:nonzero;"/>
    <path d="M18.338,260.013C16.314,254.416 14.485,248.894 12.342,243.182C11.689,241.251 11.349,239.508 11.059,237.385C18.722,242.73 21.417,250.177 18.937,259.835C18.917,260.242 18.532,260.087 18.338,260.013Z" style="fill:rgb(50,40,98);fill-rule:nonzero;"/>
    <path d="M20.108,263.332C20.723,264.103 21.349,265.202 21.974,266.675C21.355,265.919 20.737,264.789 20.108,263.332Z" style="fill:rgb(50,40,98);fill-rule:nonzero;"/>
    <path d="M22.268,112.154C23.134,110.982 24,109.811 25.189,108.121C27.963,103.382 30.414,99.161 33.237,95.016C33.902,96.662 34.978,98.736 34.349,99.711C32.08,103.227 34.593,105.27 36.278,107.463C37.343,108.849 39.022,109.763 40.424,110.89C44.178,113.908 45.751,113.6 48.157,109.241C49.473,109.845 50.801,110.454 52.054,111.426C51.341,112.892 50.482,113.925 50.099,115.111C46.099,127.504 42.176,139.922 38.145,151.969C35.143,148.609 32.23,145.61 29.31,142.617C27.512,140.774 25.627,139.01 23.921,137.086C22.192,135.138 20.637,133.036 19.004,130.535C18.971,127.847 18.939,125.625 18.879,123.053C19.99,119.187 21.129,115.67 22.268,112.154Z" style="fill:rgb(87,71,127);fill-rule:nonzero;"/>
    <path d="M208.406,378.947C204.96,379.062 201.913,379.061 198.174,378.726C196.32,378.261 195.158,378.131 194.048,377.595C194.706,373.681 194.29,369.45 196.148,366.83C199.17,362.567 197.799,360.819 194.457,359.029C198.927,359.331 202.966,359.674 207.031,360.378C212.586,372.099 220.277,373.845 229.964,366.299C230.314,368.108 230.657,369.554 231.006,371.388C231.399,372.994 231.787,374.213 232.174,375.431C224.385,376.564 216.596,377.697 208.406,378.947Z" style="fill:rgb(64,53,108);fill-rule:nonzero;"/>
    <path d="M256.999,368.892C249.927,370.919 242.856,372.945 235.394,374.613C235.336,373.501 235.668,372.749 236.334,371.997C237.111,371.998 237.555,371.998 238.417,371.998C240.667,371.56 242.501,371.133 244.328,370.679C247.887,369.794 251.443,368.894 255.333,368C256.11,368.001 256.554,368.001 256.998,368.224C256.998,368.447 256.999,368.892 256.999,368.892Z" style="fill:rgb(64,53,108);fill-rule:nonzero;"/>
    <path d="M257.325,368.908C256.999,368.892 256.998,368.447 256.999,367.849C257,366.5 256.999,365.749 257.18,364.751C258.907,364.335 260.452,364.166 262.398,363.998C263.866,363.999 264.934,363.999 266.13,364.236C266.554,364.67 266.849,364.867 267.144,365.063C266.897,365.309 266.65,365.554 266.199,365.974C264.764,366.511 263.532,366.876 261.662,367.215C260.689,367.421 260.354,367.652 260.019,367.883C259.23,368.23 258.44,368.577 257.325,368.908Z" style="fill:rgb(65,54,111);fill-rule:nonzero;"/>
    <path d="M236.001,371.997C235.668,372.749 235.336,373.501 235.002,374.584C234.3,375.093 233.6,375.273 232.537,375.442C231.787,374.213 231.399,372.994 231.393,371.388C233.183,371.332 234.592,371.665 236.001,371.997Z" style="fill:rgb(65,54,111);fill-rule:nonzero;"/>
    <path d="M260.34,367.896C260.354,367.652 260.689,367.421 261.339,367.181C261.323,367.417 260.992,367.663 260.34,367.896Z" style="fill:rgb(67,56,113);fill-rule:nonzero;"/>
    <path d="M174.677,5.311C176.737,5.154 178.438,5.179 180.571,5.613C183.772,9.094 186.364,12.352 189.361,15.182C192.136,17.803 195.574,19.818 194.913,24.607C193.469,25.286 192.254,25.739 190.662,26.185C185.192,28.108 180.099,30.039 174.68,31.992C173.925,32.079 173.496,32.143 172.904,31.923C172.741,30.252 172.741,28.865 172.741,27.23C169.743,28.142 166.285,29.195 161.979,30.506C162.776,27.848 163.228,26.342 163.68,24.837C163.259,25.051 162.839,25.266 162.418,25.481C160.872,23.27 159.44,20.966 157.733,18.887C156.843,17.803 155.583,16.845 154.292,16.301C150.582,14.738 146.771,13.416 142.999,11.999C153.438,9.83 163.877,7.661 174.677,5.311Z" style="fill:rgb(142,121,171);fill-rule:nonzero;"/>
    <path d="M142.665,11.985C146.771,13.416 150.582,14.738 154.292,16.301C155.583,16.845 156.843,17.803 157.733,18.887C159.44,20.966 160.872,23.27 162.418,25.481C162.839,25.266 163.259,25.051 163.68,24.837C163.228,26.342 162.776,27.848 161.979,30.506C166.285,29.195 169.743,28.142 172.741,27.23C172.741,28.865 172.741,30.252 172.662,32.166C167.567,35.272 162.553,37.849 157.285,40.509C156.683,40.655 156.334,40.719 155.919,40.455C153.134,37.157 150.63,33.947 147.648,31.27C143.055,27.147 138.134,23.39 133.592,19.674C133.713,18.11 133.836,16.509 133.959,14.907C136.131,14.085 138.303,13.263 140.736,12.205C141.441,11.971 141.886,11.972 142.665,11.985Z" style="fill:rgb(136,116,167);fill-rule:nonzero;"/>
    <path d="M133.579,14.931C133.836,16.509 133.713,18.11 133.592,19.674C138.134,23.39 143.055,27.147 147.648,31.27C150.63,33.947 153.134,37.157 155.602,40.613C148.365,46.12 141.38,51.143 134.036,56.007C131.536,53.034 129.394,50.221 126.936,46.993C128.596,44.76 127.608,42.975 124.049,41.819C121.398,40.959 118.202,40.17 116.521,38.24C111.99,33.038 105.498,34.035 99.975,31.607C99.918,30.96 99.894,30.701 99.87,30.443C107.71,26.389 115.55,22.336 123.687,18.08C127.056,16.903 130.128,15.93 133.579,14.931Z" style="fill:rgb(128,109,161);fill-rule:nonzero;"/>
    <path d="M12.999,222C12.999,221.556 12.999,221.112 12.935,219.975C11.581,218.856 10.291,218.428 9.001,218.001C8.762,218.016 8.523,218.031 7.924,218.069C7.348,216.961 7.132,215.83 7.229,214.116C7.692,212.36 7.843,211.187 8.339,210.062C9.792,211.57 10.9,213.03 12.047,214.54L12.047,205C9.913,205 8.457,205 6.999,204.531C6.995,199.583 6.863,195.099 7.032,190.626C7.178,186.742 7.665,182.872 8.404,178.997C10.343,179.373 12.202,179.323 13.355,180.201C16.917,182.915 20.21,185.982 23.82,189.095C25.784,186.219 27.53,183.45 31.169,186.663C31.741,187.168 33.559,186.263 34.871,186.353C34.906,187.63 34.869,188.564 34.462,189.611C29.317,191.035 24.689,192.543 23.006,198.001C22.998,198 23.004,198.016 22.706,198.253C20.301,203.419 19.855,208.297 22.92,213.351C23.306,214.093 23.641,214.549 24.047,215.26C24.401,215.716 24.683,215.916 25.057,216.33C25.335,216.812 25.589,216.976 26.019,217.271C26.446,217.909 26.766,218.31 26.895,219.021C24.85,220.074 23.053,221.144 21.128,221.48C18.469,221.944 15.713,221.853 12.999,222Z" style="fill:rgb(65,54,111);fill-rule:nonzero;"/>
    <path d="M7.994,210.013C7.843,211.187 7.692,212.36 7.272,213.764C6.718,212.569 6.433,211.143 6.051,209.364C6.021,208.84 6.088,208.669 6.545,208.304C7.288,208.745 7.641,209.379 7.994,210.013Z" style="fill:rgb(72,59,118);fill-rule:nonzero;"/>
    <path d="M10.083,233.298C10.482,233.634 10.82,234.262 10.885,235.034C10.416,234.649 10.219,234.12 10.083,233.298Z" style="fill:rgb(50,40,98);fill-rule:nonzero;"/>
    <path d="M195.142,24.382C195.574,19.818 192.136,17.803 189.361,15.182C186.364,12.352 183.772,9.094 180.99,5.685C184.364,5.178 187.751,5.009 191.591,4.735C197.055,4.788 202.068,4.947 207.548,5.077C212.726,5.716 217.437,6.384 222.575,7.018C225.123,7.504 227.242,8.023 229.682,9.139C231.002,12.822 232.001,15.907 232.585,19.036C229.792,19.351 227.414,19.622 224.581,19.87C220.08,20.153 216.034,20.46 211.969,20.37C208.126,15.552 203.584,19.141 198.98,17.987C198.98,20.323 198.98,21.8 198.703,23.472C197.332,23.905 196.237,24.144 195.142,24.382Z" style="fill:rgb(148,126,175);fill-rule:nonzero;"/>
    <path d="M233,18.991C232.001,15.907 231.002,12.822 230.007,9.31C234.058,9.607 238.106,10.332 242.824,11.314C246.009,12.3 248.523,13.027 251.265,13.873C251.662,14.002 251.832,14.012 252.29,14.209C254.707,15.2 256.837,16.004 259.278,17.004C263.736,19.139 267.881,21.078 271.597,23.054C261.437,22.018 251.706,20.944 241.637,19.817C240.841,19.772 240.383,19.781 239.577,19.633C237.152,19.315 235.076,19.153 233,18.991Z" style="fill:rgb(152,133,178);fill-rule:nonzero;"/>
    <path d="M34.801,186.009C33.559,186.263 31.741,187.168 31.169,186.663C27.53,183.45 25.784,186.219 23.82,189.095C20.21,185.982 16.917,182.915 13.355,180.201C12.202,179.323 10.343,179.373 8.404,178.552C7.708,175.081 7.416,172.056 7.124,169.03C7.336,167.259 7.548,165.487 8.296,163.357C11.599,163.034 12.367,162.378 12.41,158.986C12.497,152.052 14.026,145.141 14.873,138.209C15.045,136.801 14.828,135.346 14.799,133.586C15.154,132.488 15.499,131.717 16.24,130.961C17.425,130.985 18.215,130.993 19.005,131.001C20.637,133.036 22.192,135.138 23.921,137.086C25.627,139.01 27.512,140.774 29.31,142.617C32.23,145.61 35.143,148.609 38.145,152.365C37.587,156.9 36.943,160.676 36.169,164.059C34.915,163.146 33.792,162.626 33.052,162.283C32.447,168.499 32.068,173.903 31.342,179.26C30.922,182.352 30.52,185.016 34.901,185.252C34.893,185.676 34.847,185.842 34.801,186.009M11.588,167.517C11.588,167.517 11.477,167.584 11.588,167.517Z" style="fill:rgb(74,60,119);fill-rule:nonzero;"/>
    <path d="M11.872,141.377C12.654,138.795 13.481,136.604 14.549,134.163C14.828,135.346 15.045,136.801 14.873,138.209C14.026,145.141 12.497,152.052 12.41,158.986C12.367,162.378 11.599,163.034 8.442,162.999C9.34,155.922 10.629,148.845 11.872,141.377Z" style="fill:rgb(72,59,118);fill-rule:nonzero;"/>
    <path d="M6.994,169.415C7.416,172.056 7.708,175.081 8.001,178.551C7.665,182.872 7.178,186.742 7.032,190.626C6.863,195.099 6.995,199.583 6.808,204.538C6.619,205.014 6.237,205.015 6.237,205.015C6.026,201.304 5.815,197.593 5.547,193.421C5.607,188.287 5.724,183.614 5.796,178.478C6.123,175.276 6.494,172.538 6.994,169.415Z" style="fill:rgb(72,59,118);fill-rule:nonzero;"/>
    <path d="M6.192,205.387C6.237,205.015 6.619,205.014 6.811,205.007C8.457,205 9.913,205 12.047,205L12.047,214.54C10.9,213.03 9.792,211.57 8.339,210.062C7.641,209.379 7.288,208.745 6.65,208.049C6.292,207.244 6.22,206.501 6.192,205.387Z" style="fill:rgb(60,47,107);fill-rule:nonzero;"/>
    <path d="M193.996,378.001C195.158,378.131 196.32,378.261 197.724,378.644C196.247,378.99 194.527,379.083 192.389,379.277C186.587,379.03 181.203,378.681 175.169,378.236C174.343,378.166 174.167,378.191 173.757,378.118C173.354,378.043 173.186,378.066 173.017,378.09C172.247,377.985 171.477,377.88 169.949,377.887C162.438,376.376 155.685,374.753 149.215,372.811C157.749,371.366 165.99,370.154 174.262,369.206C175.501,369.065 176.88,370.162 178.196,370.683C183.602,372.822 186.755,379.824 193.996,378.001Z" style="fill:rgb(54,42,101);fill-rule:nonzero;"/>
    <path d="M107.001,356.963C108.142,355.867 109.284,354.771 111.292,352.844C111.38,352.955 110.796,351.477 109.825,351.151C107.845,350.485 105.654,350.462 103.557,350.13C102.125,349.904 100.706,349.603 99.281,349.335C100.001,347.964 100.554,346.466 101.471,345.243C105.138,340.356 108.919,335.554 113.149,330.517C126.666,338.768 140.34,345.906 154.889,351.112C151.88,352.884 147.491,353.752 146.661,355.958C145.051,360.241 145.44,365.276 144.607,369.998C140.421,370.316 140.103,367.45 138.813,364.866C137.425,362.083 138.99,357.143 133.363,356.873C130.971,356.758 128.646,355.236 125.376,354.01C121.486,355.369 116.236,357.202 110.659,359.009C109.221,358.31 108.111,357.636 107.001,356.963Z" style="fill:rgb(54,42,101);fill-rule:nonzero;"/>
    <path d="M75.964,317.003C75.964,317.003 75.785,316.747 75.859,316.104C76.588,310.604 77.244,305.749 77.89,300.904C77.879,300.915 77.857,300.885 78.236,300.855C79.091,299.49 79.567,298.154 80.37,296.883C81.14,296.989 81.582,297.032 82.263,297.334C87.102,297.017 91.703,296.439 96.49,295.866C96.675,295.869 96.99,296.065 97.066,296.429C98.763,297.196 100.384,297.598 102.264,298.115C103.004,298.79 103.486,299.351 103.943,300.261C103.946,301.076 103.974,301.541 103.832,302.109C103.876,302.391 104.091,302.571 104.3,302.776C104.294,302.802 104.242,302.811 104.167,303.225C104.139,306.009 104.146,308.38 104.244,310.747C104.343,313.137 104.532,315.524 104.753,318.248C104.982,319.016 105.14,319.447 104.931,319.931C101.822,321.559 96.898,318.487 95.595,324.053C91.735,324.477 88.284,324.85 84.833,325.223C84.833,325.223 84.95,325.232 84.778,324.935C83.727,324.432 82.848,324.226 81.968,324.02C81.968,324.02 81.998,323.998 81.964,323.65C81.172,320.037 79.503,317.635 75.964,317.003Z" style="fill:rgb(232,146,154);fill-rule:nonzero;"/>
    <path d="M96.005,324.001C96.898,318.487 101.822,321.559 105.25,320.019C113.507,324.743 121.078,329.433 128.88,334.398C142.498,342.466 157.025,347.228 172.376,350.916C175.345,351.396 177.929,351.784 180.759,352.402C181.657,352.713 182.308,352.794 183.302,352.978C184.586,353.11 185.528,353.138 186.654,353.391C187.208,353.679 187.579,353.743 188.351,353.908C190.654,354.061 192.557,354.114 194.738,354.423C195.996,354.745 196.976,354.811 198.407,354.964C201.629,355.13 204.399,355.208 207.161,355.681C207.103,357.389 207.054,358.703 207.005,360.017C202.966,359.674 198.927,359.331 194.047,358.926C180.51,356.179 167.813,353.496 155.116,350.813C140.34,345.906 126.666,338.768 113.318,330.231C112.994,330.147 112.769,329.895 112.386,329.587C109.76,327.676 107.623,325.884 105.234,324.54C103.74,323.699 101.865,323.534 99.833,323.067C99.035,323.451 98.564,323.833 98.094,324.163C98.095,324.111 98.177,324.176 97.817,324.119C96.973,324.041 96.489,324.021 96.005,324.001Z" style="fill:rgb(215,144,163);fill-rule:nonzero;"/>
    <path d="M80.042,296.819C79.567,298.154 79.091,299.49 78.128,300.575C76.732,299.302 75.822,298.279 74.912,297.256C74.223,296.265 73.535,295.275 72.514,293.805C71.788,292.91 71.396,292.495 71.004,292.079C70.918,291.926 70.832,291.774 70.554,291.438C63.273,279.074 56.183,266.891 49.342,254.214C50.099,253.078 50.607,252.438 51.44,251.937C52.184,252.581 52.76,253.019 52.997,253.596C59.549,269.548 69.58,283.318 80.042,296.819Z" style="fill:rgb(210,142,162);fill-rule:nonzero;"/>
    <path d="M100.162,323.066C101.865,323.534 103.74,323.699 105.234,324.54C107.623,325.884 109.76,327.676 112.219,329.563C107.175,329.465 101.176,332.157 97.131,325.778C97.39,324.969 97.783,324.573 98.177,324.176C98.177,324.176 98.095,324.111 98.405,324.133C99.197,323.792 99.679,323.429 100.162,323.066Z" style="fill:rgb(54,42,101);fill-rule:nonzero;"/>
    <path d="M74.75,297.575C75.822,298.279 76.732,299.302 77.749,300.605C77.857,300.885 77.879,300.915 77.617,301.094C76.354,303.209 75.355,305.145 74.355,307.081C74.433,304.019 74.511,300.957 74.75,297.575Z" style="fill:rgb(61,45,99);fill-rule:nonzero;"/>
    <path d="M74.341,307.309C75.355,305.145 76.354,303.209 77.627,301.083C77.244,305.749 76.588,310.604 75.878,315.949C75.381,315.49 74.938,314.542 74.359,312.897C74.195,310.785 74.168,309.371 74.14,307.957C74.14,307.957 74.327,307.538 74.341,307.309Z" style="fill:rgb(210,142,162);fill-rule:nonzero;"/>
    <path d="M97.817,324.119C97.783,324.573 97.39,324.969 96.805,325.581C92.85,325.797 89.086,325.797 85.078,325.51C88.284,324.85 91.735,324.477 95.595,324.053C96.489,324.021 96.973,324.041 97.817,324.119Z" style="fill:rgb(210,142,162);fill-rule:nonzero;"/>
    <path d="M75.984,317.355C79.503,317.635 81.172,320.037 81.957,323.667C79.991,321.923 77.997,319.815 75.984,317.355Z" style="fill:rgb(210,142,162);fill-rule:nonzero;"/>
    <path d="M41.442,299.995C40.567,299.434 40.038,298.868 39.251,298.161C39.031,297.662 38.913,297.365 38.356,296.774C37.994,296.068 37.917,295.717 37.839,295.365C38.827,295.301 40.249,294.798 40.718,295.26C41.845,296.374 42.526,297.939 43.51,299.52C42.973,299.666 42.38,299.828 41.442,299.995Z" style="fill:rgb(55,44,103);fill-rule:nonzero;"/>
    <path d="M73.842,308.178C74.168,309.371 74.195,310.785 74.195,312.625C73.96,311.499 73.752,309.949 73.842,308.178Z" style="fill:rgb(61,45,99);fill-rule:nonzero;"/>
    <path d="M82.164,324.288C82.848,324.226 83.727,324.432 84.73,324.968C84.023,325.051 83.191,324.803 82.164,324.288Z" style="fill:rgb(210,142,162);fill-rule:nonzero;"/>
    <path d="M71.038,292.394C71.396,292.495 71.788,292.91 72.279,293.605C71.943,293.493 71.508,293.101 71.038,292.394Z" style="fill:rgb(55,44,103);fill-rule:nonzero;"/>
    <path d="M12.714,222.268C15.713,221.853 18.469,221.944 21.128,221.48C23.053,221.144 24.85,220.074 27.197,219.112C28.103,218.967 28.514,219.042 28.964,219.077C29.002,219.038 28.902,219.082 29.106,219.382C32.491,220.646 35.672,221.611 38.782,222.682C38.71,222.788 38.792,223.03 38.784,223.439C41.815,233.567 44.855,243.287 47.895,253.006C46.539,254.186 45.183,255.366 43.828,256.546C44.013,257.022 44.199,257.499 44.385,257.976C42.704,257.7 40.823,257.813 39.383,257.071C36.007,255.33 33.701,251.996 28.974,252.164C27.399,252.22 25.003,247.895 24.145,245.203C22.625,240.429 21.766,235.951 16.133,233.695C11.41,231.803 11.597,226.97 12.714,222.268Z" style="fill:rgb(60,47,107);fill-rule:nonzero;"/>
    <path d="M48.08,253.175C44.855,243.287 41.815,233.567 39.196,223.429C40.436,223.014 41.255,223.017 42.243,223.339C44.546,229.869 46.68,236.08 48.846,242.661C49.623,245.954 50.369,248.875 51.115,251.797C50.607,252.438 50.099,253.078 49.309,253.854C48.774,253.773 48.52,253.558 48.08,253.175Z" style="fill:rgb(216,147,164);fill-rule:nonzero;"/>
    <path d="M9.066,218.359C10.291,218.428 11.581,218.856 12.935,219.642C11.709,219.573 10.42,219.145 9.066,218.359Z" style="fill:rgb(60,47,107);fill-rule:nonzero;"/>
    <path d="M99.528,30.573C99.894,30.701 99.918,30.96 99.936,31.958C98.727,34.61 97.523,36.523 96.096,38.791C100.182,40.79 101.862,43.924 100.019,48.255C110.311,52.287 120.162,56.145 129.875,60.302C127.793,62.652 125.848,64.703 123.605,66.921C116.423,75.477 109.538,83.865 102.268,92.184C95.143,88.99 93.109,82.576 91.147,76.179C98.835,73.138 102.191,65.087 98.851,58.285C96.488,53.475 90.992,50.536 85.633,51.216C79.592,51.983 75.805,56.332 74.12,64.011C68.607,63.96 67.16,60.095 65.717,56.226C67.989,53.91 70.261,51.594 73.044,48.902C75.142,47.066 76.729,45.608 78.315,44.15C78.78,43.888 79.246,43.626 79.84,43.125C83.591,40.49 87.213,38.094 91.03,35.42C93.88,33.662 96.533,32.182 99.528,30.573M99.36,51.558C98.973,52.442 98.587,53.326 98.2,54.21C98.619,54.306 99.039,54.402 99.458,54.498C99.568,53.679 99.677,52.86 99.36,51.558Z" style="fill:rgb(119,101,152);fill-rule:nonzero;"/>
    <path d="M56.001,63.995C58.083,62.243 60.164,60.492 62.581,58.977C61.486,61.978 60.055,64.743 58.353,68.03C58.4,68.215 58.667,69.691 59.155,71.09C59.602,72.371 59.957,74.062 60.929,74.714C63.93,76.728 67.207,78.332 70.275,80.329C70.1,80.713 70.025,80.864 69.734,81.132C69.251,81.468 69.094,81.749 68.926,82.41C64.252,90.161 59.701,97.594 54.783,104.988C50.934,103.47 47.717,101.785 46.193,97.897C45.763,96.801 44.331,96.106 43.383,95.201C41.221,93.134 39.074,91.05 36.98,88.656C37.694,87.226 38.348,86.114 39.297,84.847C42.209,81.199 44.825,77.708 47.612,74.113C47.985,73.819 48.105,73.587 48.399,73.186C48.832,72.734 49.01,72.407 49.462,71.902C51.825,69.147 53.913,66.571 56.001,63.995Z" style="fill:rgb(102,84,139);fill-rule:nonzero;"/>
    <path d="M70.377,80.096C67.207,78.332 63.93,76.728 60.929,74.714C59.957,74.062 59.602,72.371 59.155,71.09C58.667,69.691 58.4,68.215 58.353,68.03C60.055,64.743 61.486,61.978 62.88,58.796C63.598,57.69 64.351,57.002 65.411,56.27C67.16,60.095 68.607,63.96 74.219,64.398C75.54,67.482 76.392,70.179 76.907,73.001C74.506,75.449 72.441,77.773 70.377,80.096Z" style="fill:rgb(110,91,144);fill-rule:nonzero;"/>
    <path d="M36.299,164.452C36.943,160.676 37.587,156.9 38.231,152.728C42.176,139.922 46.099,127.504 50.099,115.111C50.482,113.925 51.341,112.892 52.259,111.409C52.538,111.029 52.945,110.969 53.233,111.106C54.047,111.89 54.573,112.537 55.122,113.397C55.146,113.61 55.302,114.01 55.224,114.387C51.499,125.181 47.852,135.598 44.141,146.398C43.776,148.537 43.474,150.294 43.089,152.45C41.662,162.235 40.317,171.62 38.723,180.83C37.476,180.107 36.48,179.559 35.381,178.583C35.618,173.587 35.958,169.019 36.299,164.452Z" style="fill:rgb(210,142,162);fill-rule:nonzero;"/>
    <path d="M52.945,110.969C52.945,110.969 52.538,111.029 52.333,111.047C50.801,110.454 49.473,109.845 48.157,109.241C45.751,113.6 44.178,113.908 40.424,110.89C39.022,109.763 37.343,108.849 36.278,107.463C34.593,105.27 32.08,103.227 34.349,99.711C34.978,98.736 33.902,96.662 33.237,95.016C33.528,93.836 34.191,92.733 35.155,91.145C35.944,90.098 36.432,89.536 36.921,88.974C39.074,91.05 41.221,93.134 43.383,95.201C44.331,96.106 45.763,96.801 46.193,97.897C47.717,101.785 50.934,103.47 54.698,105.341C54.302,107.478 53.624,109.223 52.945,110.969Z" style="fill:rgb(93,76,133);fill-rule:nonzero;"/>
    <path d="M16.24,130.961C16.329,129.25 16.813,127.554 17.345,125.481C17.732,124.64 18.071,124.178 18.659,123.559C18.939,125.625 18.971,127.847 19.004,130.535C18.215,130.993 17.425,130.985 16.24,130.961Z" style="fill:rgb(72,59,118);fill-rule:nonzero;"/>
    <path d="M154.889,351.112C167.813,353.496 180.51,356.179 193.616,358.966C197.799,360.819 199.17,362.567 196.148,366.83C194.29,369.45 194.706,373.681 194.048,377.595C186.755,379.824 183.602,372.822 178.196,370.683C176.88,370.162 175.501,369.065 174.262,369.206C165.99,370.154 157.749,371.366 149.215,372.811C148.393,373.077 147.853,373.024 147.035,372.492C146.172,371.342 145.586,370.671 145.001,369.999C145.44,365.276 145.051,360.241 146.661,355.958C147.491,353.752 151.88,352.884 154.889,351.112Z" style="fill:rgb(58,46,104);fill-rule:nonzero;"/>
    <path d="M207.031,360.378C207.054,358.703 207.103,357.389 207.408,355.443C209.103,352.523 210.543,350.234 212.344,347.827C217.759,344.698 222.683,345.531 227.72,348.507C228.479,348.984 229.063,349.156 229.692,349.334C229.736,349.341 229.759,349.427 229.731,349.451C229.703,349.475 229.645,349.52 229.578,349.949C232.169,354.219 232.64,358.402 231.294,363.05C230.987,363.769 230.848,364.281 230.765,364.832C230.82,364.869 230.841,364.737 230.588,364.85C230.2,365.301 230.066,365.639 229.957,365.979C229.983,365.982 229.957,365.936 229.957,365.936C220.277,373.845 212.586,372.099 207.031,360.378Z" style="fill:rgb(248,244,225);fill-rule:nonzero;"/>
    <path d="M236.334,371.997C234.592,371.665 233.183,371.332 231.387,371.001C230.657,369.554 230.314,368.108 229.964,366.299C229.957,365.936 229.983,365.982 230.199,365.85C230.557,365.392 230.699,365.064 230.841,364.737C230.841,364.737 230.82,364.869 231.113,364.864C231.938,364.238 232.469,363.619 233.363,363.038C236.232,364.448 238.738,365.82 241.275,367.209C239.741,369.45 238.87,370.724 237.999,371.998C237.555,371.998 237.111,371.998 236.334,371.997Z" style="fill:rgb(67,56,113);fill-rule:nonzero;"/>
    <path d="M278.944,360.814C278.163,361.159 277.382,361.503 275.951,361.979C273.202,363.077 271.103,364.044 269.003,365.011C268.591,365.032 268.179,365.052 267.455,365.068C266.849,364.867 266.554,364.67 266.125,363.887C265.644,362.657 265.298,362.014 264.951,361.37C263.967,362.246 262.982,363.122 261.998,363.998C260.452,364.166 258.907,364.335 256.847,364.751C255.89,364.999 255.446,364.999 255.002,364.749C255.002,364.499 255.001,363.999 255.007,363.61C256.863,358.586 254.903,356.943 250.336,356.902C248.99,356.89 247.535,356.055 246.335,355.28C243.634,353.535 241.061,351.593 238.437,349.729C236.218,348.151 234.104,346.387 231.737,345.079C230.77,344.545 229.26,344.994 227.7,344.851C223.401,342.78 227.38,340.35 227.365,338.129C228.488,338.002 229.238,337.942 230.325,337.974C231.112,338.177 231.562,338.289 232.141,338.749C235.537,338.863 238.803,338.627 242.338,338.243C244.388,337.944 246.17,337.792 248.363,337.72C252.217,337.332 255.659,336.864 259.543,336.425C265.229,335.591 270.475,334.728 276.044,334.018C282.302,340.189 290.955,343.184 295.002,351.372C293.319,352.706 291.827,353.76 289.999,354.802C286.089,356.798 282.517,358.806 278.944,360.814Z" style="fill:rgb(72,59,118);fill-rule:nonzero;"/>
    <path d="M255.001,363.999C255.001,363.999 255.002,364.499 255.001,365.124C255,366.499 255,367.25 255,368C251.443,368.894 247.887,369.794 244.328,370.679C242.501,371.133 240.667,371.56 238.417,371.998C238.87,370.724 239.741,369.45 241.275,367.209C238.738,365.82 236.232,364.448 232.978,363.005C231.975,362.903 231.719,362.873 231.463,362.843C232.64,358.402 232.169,354.219 229.907,350.215C236.692,350.709 236.564,355.986 237.372,360.339C240.161,360.97 243.404,360.756 245.039,362.274C248.266,365.27 251.455,364.803 255.001,363.999Z" style="fill:rgb(65,54,111);fill-rule:nonzero;"/>
    <path d="M255.333,368C255,367.25 255,366.499 255.001,365.374C255.446,364.999 255.89,364.999 256.666,364.999C256.999,365.749 257,366.5 256.999,367.626C256.554,368.001 256.11,368.001 255.333,368Z" style="fill:rgb(67,56,113);fill-rule:nonzero;"/>
    <path d="M262.398,363.998C262.982,363.122 263.967,362.246 264.951,361.37C265.298,362.014 265.644,362.657 265.996,363.65C264.934,363.999 263.866,363.999 262.398,363.998Z" style="fill:rgb(67,56,113);fill-rule:nonzero;"/>
    <path d="M134.036,56.007C133.137,57.373 131.88,58.58 130.318,59.895C120.162,56.145 110.311,52.287 100.019,48.255C101.862,43.924 100.182,40.79 96.096,38.791C97.523,36.523 98.727,34.61 99.97,32.346C105.498,34.035 111.99,33.038 116.521,38.24C118.202,40.17 121.398,40.959 124.049,41.819C127.608,42.975 128.596,44.76 126.936,46.993C129.394,50.221 131.536,53.034 134.036,56.007Z" style="fill:rgb(123,103,157);fill-rule:nonzero;"/>
    <path d="M35.484,179.012C36.48,179.559 37.476,180.107 38.759,181.163C39,182.116 38.954,182.56 38.754,183.09C38.541,183.279 38.408,183.425 38.438,183.473C38.552,183.663 38.717,183.822 38.909,184.328C38.914,185.112 38.874,185.56 38.692,186.097C38.345,186.515 38.424,186.778 38.843,187.357C39.723,188.566 40.415,189.862 41.399,190.146C47.519,191.91 51.135,196.021 53.314,202.214C62.381,202.696 71.192,202.848 80.269,203.217C80.64,204.327 80.744,205.221 80.397,206.023C72.072,205.916 64.198,205.86 56.326,205.934C55.351,205.944 54.384,206.645 53.275,207.339C53.11,208.106 53.084,208.56 52.955,209.234C52.853,209.454 52.844,209.94 52.676,209.972C52.507,210.003 52.17,210.062 51.822,210.189C51.034,211.647 50.593,212.976 50.087,214.5C50.022,214.693 49.735,214.983 49.439,215.038C48.766,215.737 48.39,216.38 48.006,217.011C47.999,217 48.022,217.013 47.662,217.01C46.547,217.69 45.791,218.374 45.017,219.031C44.999,219.003 45.054,219.04 44.743,219.041C43.975,219.395 43.516,219.748 42.903,220.374C42.524,221.438 42.299,222.229 42.074,223.02C41.255,223.017 40.436,223.014 39.205,223.021C38.792,223.03 38.71,222.788 38.688,222.296C35.411,220.897 32.156,219.99 28.902,219.082C28.902,219.082 29.002,219.038 28.938,218.716C27.887,217.94 26.899,217.487 25.912,217.034C25.589,216.976 25.335,216.812 24.973,216.081C24.525,215.414 24.25,215.21 23.976,215.005C23.641,214.549 23.306,214.093 23.196,213.14C23.282,207.768 23.143,202.892 23.004,198.016C23.004,198.016 22.998,198 23.352,197.964C26.427,195.999 29.172,194.103 31.856,192.125C32.917,191.343 33.844,190.379 34.833,189.497C34.869,188.564 34.906,187.63 34.871,186.353C34.847,185.842 34.893,185.676 34.988,184.83C35.186,182.438 35.335,180.725 35.484,179.012Z" style="fill:rgb(232,146,157);fill-rule:nonzero;"/>
    <path d="M34.462,189.611C33.844,190.379 32.917,191.343 31.856,192.125C29.172,194.103 26.427,195.999 23.36,197.965C24.689,192.543 29.317,191.035 34.462,189.611Z" style="fill:rgb(210,142,162);fill-rule:nonzero;"/>
    <path d="M22.706,198.253C23.143,202.892 23.282,207.768 23.145,212.854C19.855,208.297 20.301,203.419 22.706,198.253Z" style="fill:rgb(210,142,162);fill-rule:nonzero;"/>
    <path d="M26.019,217.271C26.899,217.487 27.887,217.94 28.9,218.755C28.514,219.042 28.103,218.967 27.389,218.801C26.766,218.31 26.446,217.909 26.019,217.271Z" style="fill:rgb(210,142,162);fill-rule:nonzero;"/>
    <path d="M24.047,215.26C24.25,215.21 24.525,215.414 24.882,215.867C24.683,215.916 24.401,215.716 24.047,215.26Z" style="fill:rgb(210,142,162);fill-rule:nonzero;"/>
    <path d="M206.017,21.878C203.94,22.333 201.863,22.788 199.383,23.26C198.98,21.8 198.98,20.323 198.98,17.987C203.584,19.141 208.126,15.552 211.969,20.37C210.553,21.111 209.118,21.456 207.21,21.641C206.387,21.367 206.147,21.499 206.017,21.878Z" style="fill:rgb(142,121,171);fill-rule:nonzero;"/>
    <path d="M144.607,369.998C145.586,370.671 146.172,371.342 146.799,372.351C145.509,372.424 144.178,372.16 142.438,371.903C136.608,369.944 131.185,367.978 125.388,365.974C122.248,364.64 119.483,363.345 116.358,362.033C114.464,361.191 112.929,360.366 111.19,359.289C116.236,357.202 121.486,355.369 125.376,354.01C128.646,355.236 130.971,356.758 133.363,356.873C138.99,357.143 137.425,362.083 138.813,364.866C140.103,367.45 140.421,370.316 144.607,369.998Z" style="fill:rgb(50,40,98);fill-rule:nonzero;"/>
    <path d="M35.381,178.583C35.335,180.725 35.186,182.438 34.951,184.573C30.52,185.016 30.922,182.352 31.342,179.26C32.068,173.903 32.447,168.499 33.052,162.283C33.792,162.626 34.915,163.146 36.169,164.059C35.958,169.019 35.618,173.587 35.381,178.583Z" style="fill:rgb(65,54,111);fill-rule:nonzero;"/>
    <path d="M11.533,167.55C11.477,167.584 11.588,167.517 11.533,167.55Z" style="fill:rgb(72,59,118);fill-rule:nonzero;"/>
    <path d="M272.658,23.653C272.482,23.728 272.265,23.565 272.021,23.152C272.176,23.109 272.384,23.28 272.658,23.653Z" style="fill:rgb(152,133,178);fill-rule:nonzero;"/>
    <path d="M211.983,347.946C210.543,350.234 209.103,352.523 207.417,355.049C204.399,355.208 201.629,355.13 198.143,354.706C196.438,354.296 195.449,354.231 194.46,354.167C192.557,354.114 190.654,354.061 188.16,353.701C187.202,353.318 186.836,353.243 186.47,353.167C185.528,353.138 184.586,353.11 183.072,352.733C181.838,352.314 181.175,352.242 180.513,352.171C177.929,351.784 175.345,351.396 172.302,350.565C171.08,349.528 170.393,348.777 169.542,348.365C164.721,346.032 159.465,344.352 155.115,341.351C150.02,337.836 145.698,333.338 138.775,336.841C138.174,337.145 136.403,336.498 136.135,335.878C134.363,331.775 131.448,333.343 128.649,334.122C121.078,329.433 113.507,324.743 105.617,319.965C105.14,319.447 104.982,319.016 104.973,317.931C107.032,312.321 108.05,307.419 104.242,302.811C104.242,302.811 104.294,302.802 104.283,302.567C104.271,302.333 104.003,302.007 104.003,302.007C103.974,301.541 103.946,301.076 104.244,300.127C110.044,295.349 115.516,291.053 121.243,286.994C124.012,289.483 126.526,291.736 129.177,294.292C132.753,297.478 136.193,300.359 139.816,303.53C144.667,306.557 149.333,309.294 154.311,312.168C159.549,318.713 166.863,321.236 173.967,324.331C174.005,324.502 174.074,324.844 173.878,325.144C172.954,326.86 172.225,328.277 171.496,329.693C173.158,330.028 174.864,330.773 176.471,330.6C178.896,330.339 181.251,329.437 183.964,328.799C185.527,329.227 186.761,329.662 187.902,330.48C186.137,331.243 184.456,331.584 182.8,332.016C181.611,332.327 180.454,332.76 179.283,333.139C179.79,334.401 180.319,335.655 180.796,336.928C181.317,338.317 182.632,340.328 182.137,341.021C179.815,344.266 181.829,345.854 184.252,346.68C188.391,348.09 192.676,349.282 196.995,349.901C201.511,350.549 206.02,350.236 208.561,345.271C208.864,344.679 210.21,344.62 211.072,344.314C211.376,345.525 211.679,346.735 211.983,347.946Z" style="fill:rgb(60,48,106);fill-rule:nonzero;"/>
    <path d="M51.44,251.937C50.369,248.875 49.623,245.954 49.016,242.327C50.101,240.185 51.048,238.748 52.382,236.723C53.584,241.459 55.715,243.126 59.524,240.017C59.888,239.72 60.535,239.301 60.812,239.435C65.01,241.449 69.604,242.982 73.216,245.777C77.136,248.809 79.964,253.208 83.573,256.696C88.147,261.115 93.003,265.245 97.803,269.424C98.571,270.093 99.673,270.664 100.636,270.689C101.065,270.7 101.66,269.29 101.953,268.446C102.468,266.969 102.807,265.431 103.473,264.08C104.461,265.174 105.198,266.105 106.001,267.371C107.964,270.16 109.862,272.613 111.85,275.345C112.249,275.844 112.558,276.063 112.845,276.21C112.824,276.136 112.703,276.229 112.797,276.547C114.238,278.604 115.586,280.343 116.81,282.386C113.768,285.713 110.849,288.736 107.661,291.881C107.138,292.302 106.884,292.6 106.455,292.951C106.058,293.144 105.929,293.343 105.624,293.716C104.965,294.236 104.575,294.643 103.904,295.167C103.086,295.881 102.549,296.476 101.638,297.098C99.839,296.77 98.414,296.418 96.99,296.065C96.99,296.065 96.675,295.869 96.205,295.608C90.87,293.583 86.268,293.905 82.025,297.074C81.582,297.032 81.14,296.989 80.37,296.883C69.58,283.318 59.549,269.548 52.997,253.596C52.76,253.019 52.184,252.581 51.44,251.937Z" style="fill:rgb(61,48,108);fill-rule:nonzero;"/>
    <path d="M107.931,291.759C110.849,288.736 113.768,285.713 117.156,282.348C119.542,280.387 121.458,278.767 123.635,277.104C124.275,276.722 124.653,276.383 125.326,275.887C130.912,270.618 136.203,265.504 141.831,260.358C143.465,260.545 144.761,260.763 146.027,261.327C143.938,264.053 141.88,266.433 139.544,268.994C136.791,271.4 134.316,273.624 131.548,276.008C127.832,279.698 124.411,283.228 120.989,286.758C115.516,291.053 110.044,295.349 104.27,299.778C103.486,299.351 103.004,298.79 102.265,297.883C102.008,297.537 102.013,297.072 102.013,297.072C102.549,296.476 103.086,295.881 104.207,295.109C105.159,294.49 105.526,294.047 105.894,293.603C105.929,293.343 106.058,293.144 106.759,292.876C107.469,292.418 107.7,292.088 107.931,291.759Z" style="fill:rgb(215,146,158);fill-rule:nonzero;"/>
    <path d="M104.167,303.225C108.05,307.419 107.032,312.321 104.902,317.595C104.532,315.524 104.343,313.137 104.244,310.747C104.146,308.38 104.139,306.009 104.167,303.225Z" style="fill:rgb(215,146,158);fill-rule:nonzero;"/>
    <path d="M82.263,297.334C86.268,293.905 90.87,293.583 96.02,295.605C91.703,296.439 87.102,297.017 82.263,297.334Z" style="fill:rgb(210,142,162);fill-rule:nonzero;"/>
    <path d="M101.638,297.098C102.013,297.072 102.008,297.537 102.006,297.769C100.384,297.598 98.763,297.196 97.066,296.429C98.414,296.418 99.839,296.77 101.638,297.098Z" style="fill:rgb(210,142,162);fill-rule:nonzero;"/>
    <path d="M103.832,302.109C104.003,302.007 104.271,302.333 104.289,302.542C104.091,302.571 103.876,302.391 103.832,302.109Z" style="fill:rgb(215,146,158);fill-rule:nonzero;"/>
    <path d="M128.88,334.398C131.448,333.343 134.363,331.775 136.135,335.878C136.403,336.498 138.174,337.145 138.775,336.841C145.698,333.338 150.02,337.836 155.115,341.351C159.465,344.352 164.721,346.032 169.542,348.365C170.393,348.777 171.08,349.528 171.917,350.472C157.025,347.228 142.498,342.466 128.88,334.398Z" style="fill:rgb(61,45,99);fill-rule:nonzero;"/>
    <path d="M194.738,354.423C195.449,354.231 196.438,354.296 197.692,354.618C196.976,354.811 195.996,354.745 194.738,354.423Z" style="fill:rgb(65,54,111);fill-rule:nonzero;"/>
    <path d="M180.759,352.402C181.175,352.242 181.838,352.314 182.73,352.63C182.308,352.794 181.657,352.713 180.759,352.402Z" style="fill:rgb(65,54,111);fill-rule:nonzero;"/>
    <path d="M99.833,323.067C99.679,323.429 99.197,323.792 98.404,324.185C98.564,323.833 99.035,323.451 99.833,323.067Z" style="fill:rgb(210,142,162);fill-rule:nonzero;"/>
    <path d="M186.654,353.391C186.836,353.243 187.202,353.318 187.759,353.601C187.579,353.743 187.208,353.679 186.654,353.391Z" style="fill:rgb(65,54,111);fill-rule:nonzero;"/>
    <path d="M29.106,219.382C32.156,219.99 35.411,220.897 38.76,222.191C35.672,221.611 32.491,220.646 29.106,219.382Z" style="fill:rgb(210,142,162);fill-rule:nonzero;"/>
    <path d="M103.22,263.919C102.807,265.431 102.468,266.969 101.953,268.446C101.66,269.29 101.065,270.7 100.636,270.689C99.673,270.664 98.571,270.093 97.803,269.424C93.003,265.245 88.147,261.115 83.573,256.696C79.964,253.208 77.136,248.809 73.216,245.777C69.604,242.982 65.01,241.449 60.812,239.435C60.535,239.301 59.888,239.72 59.524,240.017C55.715,243.126 53.584,241.459 52.382,236.723C51.048,238.748 50.101,240.185 48.984,241.956C46.68,236.08 44.546,229.869 42.243,223.339C42.299,222.229 42.524,221.438 43.2,220.347C44.119,219.711 44.586,219.376 45.054,219.04C45.054,219.04 44.999,219.003 45.334,218.995C46.454,218.329 47.238,217.671 48.022,217.013C48.022,217.013 47.999,217 48.263,216.897C48.929,216.191 49.332,215.587 49.735,214.983C49.735,214.983 50.022,214.693 50.372,214.295C51.205,212.619 51.687,211.34 52.17,210.062C52.17,210.062 52.507,210.003 52.863,209.926C53.31,209.761 53.492,209.62 53.476,209.593C53.359,209.387 53.203,209.204 53.058,209.013C53.084,208.56 53.11,208.106 53.663,207.349C61.62,207.426 69.05,207.806 76.725,208.198C72.429,213.765 66.067,207.992 61.161,210.775C61.262,211.524 61.229,212.194 61.45,212.768C64.936,221.827 73.544,225.263 84.496,222.14C85.143,223.582 85.567,224.793 85.968,226.376C86.911,229.26 87.875,231.771 88.844,234.639C89.429,236.239 90.009,237.482 90.609,239.064C91.722,241.619 92.816,243.833 93.926,246.409C96.637,251.499 99.332,256.228 102.086,261.275C102.504,262.369 102.862,263.144 103.22,263.919Z" style="fill:rgb(66,54,113);fill-rule:nonzero;"/>
    <path d="M77.243,72.877C76.392,70.179 75.54,67.482 74.589,64.397C75.805,56.332 79.592,51.983 85.633,51.216C90.992,50.536 96.488,53.475 98.851,58.285C102.191,65.087 98.835,73.138 90.732,76.205C86.678,75.895 83.341,75.414 79.869,74.662C78.904,73.885 78.073,73.381 77.243,72.877Z" style="fill:rgb(250,246,226);fill-rule:nonzero;"/>
    <path d="M80.005,74.934C83.341,75.414 86.678,75.895 90.429,76.35C93.109,82.576 95.143,88.99 102.057,92.445C101.253,93.882 100.274,94.988 98.874,96.077C94.176,96.739 96.658,100.029 96.093,102.096C96.084,102.046 96.169,102.101 95.802,102.097C93.877,102.026 91.855,102.566 90.84,101.789C85.631,97.803 80.707,93.447 75.623,89.294C74.462,88.346 73.064,87.688 71.867,86.562C74.641,82.463 77.323,78.698 80.005,74.934Z" style="fill:rgb(108,89,143);fill-rule:nonzero;"/>
    <path d="M99.573,51.799C99.677,52.86 99.568,53.679 99.458,54.498C99.039,54.402 98.619,54.306 98.2,54.21C98.587,53.326 98.973,52.442 99.573,51.799Z" style="fill:rgb(123,103,157);fill-rule:nonzero;"/>
    <path d="M79.869,74.662C77.323,78.698 74.641,82.463 71.591,86.745C66.771,95.135 62.318,103.008 57.918,110.944C57.97,111.008 57.884,110.867 57.57,110.92C56.536,111.71 55.818,112.447 55.099,113.184C54.573,112.537 54.047,111.89 53.233,111.106C53.624,109.223 54.302,107.478 55.065,105.38C59.701,97.594 64.252,90.161 69.142,82.292C69.752,81.64 69.908,81.36 69.95,81.015C70.025,80.864 70.1,80.713 70.275,80.329C72.441,77.773 74.506,75.449 76.907,73.001C78.073,73.381 78.904,73.885 79.869,74.662Z" style="fill:rgb(216,147,164);fill-rule:nonzero;"/>
    <path d="M69.734,81.132C69.908,81.36 69.752,81.64 69.264,81.974C69.094,81.749 69.251,81.468 69.734,81.132Z" style="fill:rgb(110,91,144);fill-rule:nonzero;"/>
    <path d="M53.057,201.883C51.135,196.021 47.519,191.91 41.399,190.146C40.415,189.862 39.723,188.566 38.914,187.118C38.931,186.498 38.834,186.009 38.834,186.009C38.874,185.56 38.914,185.112 38.971,184.083C38.961,183.336 38.934,183.17 38.908,183.004C38.954,182.56 39,182.116 39.01,181.339C40.317,171.62 41.662,162.235 43.39,152.622C44.518,153.79 45.305,155.165 45.996,156.586C47.499,159.673 48.22,163.582 50.565,165.732C57.181,171.798 63.687,177.848 68.94,185.201C69.907,186.554 72.17,186.981 73.835,187.835C74.556,186.181 75.869,184.539 75.901,182.872C76.097,172.917 75.998,162.956 76.196,152.76C77.281,153.772 78.168,155.021 78.813,156.573C78.622,160.95 78.671,165.025 78.599,169.516C78.521,171.964 78.564,173.994 78.465,176.451C78.53,180.923 78.737,184.967 78.884,189.267C78.894,189.683 78.964,189.843 78.994,190.373C79.05,191.475 79.144,192.208 79.18,193.349C79.404,196.145 79.686,198.532 79.62,201.154C70.534,201.553 61.796,201.718 53.057,201.883Z" style="fill:rgb(79,63,119);fill-rule:nonzero;"/>
    <path d="M79.054,156.269C78.168,155.021 77.281,153.772 75.831,152.802C72.236,155.045 69.53,156.187 67.111,151.957C66.042,150.086 64.027,147.821 62.154,147.518C56.244,146.563 50.198,146.452 44.204,146.015C47.852,135.598 51.499,125.181 55.542,114.335C56.587,112.893 57.236,111.88 57.884,110.867C57.884,110.867 57.97,111.008 58.306,110.992C62.745,115.616 66.895,120.216 70.929,124.917C72.721,127.005 74.989,129.069 75.778,131.546C77.052,135.547 79.221,137.292 83.248,137.386C83.069,139.126 82.907,140.461 82.738,141.839C82.731,141.882 82.78,141.809 82.537,142C82.239,142.79 82.183,143.389 82.013,144.368C81.257,148.483 80.616,152.219 79.766,156.096C79.389,156.248 79.222,156.258 79.054,156.269Z" style="fill:rgb(90,74,130);fill-rule:nonzero;"/>
    <path d="M44.141,146.398C50.198,146.452 56.244,146.563 62.154,147.518C64.027,147.821 66.042,150.086 67.111,151.957C69.53,156.187 72.236,155.045 75.632,153.039C75.998,162.956 76.097,172.917 75.901,182.872C75.869,184.539 74.556,186.181 73.835,187.835C72.17,186.981 69.907,186.554 68.94,185.201C63.687,177.848 57.181,171.798 50.565,165.732C48.22,163.582 47.499,159.673 45.996,156.586C45.305,155.165 44.518,153.79 43.473,152.222C43.474,150.294 43.776,148.537 44.141,146.398Z" style="fill:rgb(82,67,126);fill-rule:nonzero;"/>
    <path d="M57.57,110.92C57.236,111.88 56.587,112.893 55.62,113.958C55.302,114.01 55.146,113.61 55.122,113.397C55.818,112.447 56.536,111.71 57.57,110.92Z" style="fill:rgb(100,82,137);fill-rule:nonzero;"/>
    <path d="M212.344,347.827C211.679,346.735 211.376,345.525 211.072,344.314C210.21,344.62 208.864,344.679 208.561,345.271C206.02,350.236 201.511,350.549 196.995,349.901C192.676,349.282 188.391,348.09 184.252,346.68C181.829,345.854 179.815,344.266 182.137,341.021C182.632,340.328 181.317,338.317 180.796,336.928C180.319,335.655 179.79,334.401 179.283,333.139C180.454,332.76 181.611,332.327 182.8,332.016C184.456,331.584 186.137,331.243 188.281,330.464C196.491,331.938 204.227,333.81 212.351,335.844C217.49,336.736 222.241,337.466 226.992,338.196C227.38,340.35 223.401,342.78 227.965,345.069C228.201,346.355 227.874,347.279 227.547,348.203C222.683,345.531 217.759,344.698 212.344,347.827Z" style="fill:rgb(65,54,111);fill-rule:nonzero;"/>
    <path d="M227.72,348.507C227.874,347.279 228.201,346.355 228.263,345.213C229.26,344.994 230.77,344.545 231.737,345.079C234.104,346.387 236.218,348.151 238.437,349.729C241.061,351.593 243.634,353.535 246.335,355.28C247.535,356.055 248.99,356.89 250.336,356.902C254.903,356.943 256.863,358.586 255.007,363.61C251.455,364.803 248.266,365.27 245.039,362.274C243.404,360.756 240.161,360.97 237.372,360.339C236.564,355.986 236.692,350.709 229.974,349.786C229.645,349.52 229.703,349.475 229.911,349.334C230.107,349.009 230.094,348.825 230.081,348.64C229.937,348.87 229.792,349.099 229.648,349.328C229.063,349.156 228.479,348.984 227.72,348.507Z" style="fill:rgb(67,56,113);fill-rule:nonzero;"/>
    <path d="M231.294,363.05C231.719,362.873 231.975,362.903 232.616,362.967C232.469,363.619 231.938,364.238 231.058,364.826C230.848,364.281 230.987,363.769 231.294,363.05Z" style="fill:rgb(64,53,108);fill-rule:nonzero;"/>
    <path d="M230.588,364.85C230.699,365.064 230.557,365.392 230.174,365.848C230.066,365.639 230.2,365.301 230.588,364.85Z" style="fill:rgb(64,53,108);fill-rule:nonzero;"/>
    <path d="M324,330.001C314.623,336.993 305.246,343.985 295.531,351.034C290.955,343.184 282.302,340.189 276.122,333.831C275.876,333.491 276.054,333.127 276.45,333.141C280.616,331.958 284.385,330.76 288.516,329.499C290.246,328.916 291.614,328.397 293.349,327.88C298.814,325.54 303.912,323.198 309.359,320.799C313.351,318.768 316.995,316.794 320.952,315.029C323.208,318.287 320.672,319.677 318.995,321.395C317.921,322.494 316.871,323.616 315.199,325.369C320.968,325.368 321.354,325.607 324,330.001Z" style="fill:rgb(79,66,123);fill-rule:nonzero;"/>
    <path d="M232.141,338.749C235.063,338.346 238.113,338.292 241.616,338.315C238.803,338.627 235.537,338.863 232.141,338.749Z" style="fill:rgb(65,54,111);fill-rule:nonzero;"/>
    <path d="M206.26,21.902C206.147,21.499 206.387,21.367 206.843,21.603C206.949,21.725 206.503,21.925 206.26,21.902Z" style="fill:rgb(148,126,175);fill-rule:nonzero;"/>
    <path d="M84.272,221.909C73.544,225.263 64.936,221.827 61.45,212.768C61.229,212.194 61.262,211.524 61.161,210.775C66.067,207.992 72.429,213.765 76.725,208.198C69.05,207.806 61.62,207.426 53.801,207.036C54.384,206.645 55.351,205.944 56.326,205.934C64.198,205.86 72.072,205.916 80.431,206.019C80.916,206.106 80.951,206.048 80.957,206.234C80.959,206.694 81.07,206.909 81.31,207.499C82.308,212.592 83.29,217.251 84.272,221.909Z" style="fill:rgb(74,60,119);fill-rule:nonzero;"/>
    <path d="M80.883,206.11C80.744,205.221 80.64,204.327 80.317,202.872C80.139,202.084 80.18,201.856 80.424,201.672C80.628,201.717 81.043,201.657 81.485,201.759C84.952,201.802 87.977,201.743 91.34,201.724C92.132,201.735 92.585,201.707 93.423,201.776C94.85,201.788 95.893,201.703 97.361,201.665C100.861,201.471 103.935,201.229 107.474,201.028C113.298,201.016 118.657,200.963 124.475,200.971C128.959,201.097 132.983,201.163 137.012,201.587C137.031,202.903 137.046,203.861 136.599,204.884C132.12,205.064 128.104,205.179 123.619,205.213C117.764,205.407 112.379,205.683 106.527,205.925C100.703,205.919 95.344,205.946 89.536,205.946C86.375,205.962 83.663,206.005 80.951,206.048C80.951,206.048 80.916,206.106 80.883,206.11Z" style="fill:rgb(223,150,158);fill-rule:nonzero;"/>
    <path d="M80.22,201.627C80.18,201.856 80.139,202.084 80.05,202.656C71.192,202.848 62.381,202.696 53.314,202.214C61.796,201.718 70.534,201.553 79.702,201.324C80.131,201.261 80.22,201.627 80.22,201.627Z" style="fill:rgb(207,151,170);fill-rule:nonzero;"/>
    <path d="M51.822,210.189C51.687,211.34 51.205,212.619 50.437,214.102C50.593,212.976 51.034,211.647 51.822,210.189Z" style="fill:rgb(210,142,162);fill-rule:nonzero;"/>
    <path d="M47.662,217.01C47.238,217.671 46.454,218.329 45.353,219.022C45.791,218.374 46.547,217.69 47.662,217.01Z" style="fill:rgb(210,142,162);fill-rule:nonzero;"/>
    <path d="M49.439,215.038C49.332,215.587 48.929,216.191 48.27,216.909C48.39,216.38 48.766,215.737 49.439,215.038Z" style="fill:rgb(210,142,162);fill-rule:nonzero;"/>
    <path d="M44.743,219.041C44.586,219.376 44.119,219.711 43.355,220.074C43.516,219.748 43.975,219.395 44.743,219.041Z" style="fill:rgb(210,142,162);fill-rule:nonzero;"/>
    <path d="M38.754,183.09C38.934,183.17 38.961,183.336 38.926,183.748C38.717,183.822 38.552,183.663 38.438,183.473C38.408,183.425 38.541,183.279 38.754,183.09Z" style="fill:rgb(210,142,162);fill-rule:nonzero;"/>
    <path d="M52.955,209.234C53.203,209.204 53.359,209.387 53.476,209.593C53.492,209.62 53.31,209.761 53.032,209.895C52.844,209.94 52.853,209.454 52.955,209.234Z" style="fill:rgb(74,60,119);fill-rule:nonzero;"/>
    <path d="M38.692,186.097C38.834,186.009 38.931,186.498 38.86,186.737C38.424,186.778 38.345,186.515 38.692,186.097Z" style="fill:rgb(210,142,162);fill-rule:nonzero;"/>
    <path d="M355.279,293.446C347.817,306.93 337.338,317.908 326.12,328.691C325.503,329.278 325.023,329.562 324.271,329.923C321.354,325.607 320.968,325.368 315.199,325.369C316.871,323.616 317.921,322.494 318.995,321.395C320.672,319.677 323.208,318.287 321.163,314.753C330.969,306.475 340.876,298.683 351.161,290.952C352.786,291.824 354.033,292.635 355.279,293.446Z" style="fill:rgb(85,73,127);fill-rule:nonzero;"/>
    <path d="M173.878,325.144C177.082,325.984 180.09,327.124 183.367,328.535C181.251,329.437 178.896,330.339 176.471,330.6C174.864,330.773 173.158,330.028 171.496,329.693C172.225,328.277 172.954,326.86 173.878,325.144Z" style="fill:rgb(65,54,111);fill-rule:nonzero;"/>
    <path d="M105.624,293.716C105.526,294.047 105.159,294.49 104.488,294.992C104.575,294.643 104.965,294.236 105.624,293.716Z" style="fill:rgb(210,142,162);fill-rule:nonzero;"/>
    <path d="M107.661,291.881C107.7,292.088 107.469,292.418 106.934,292.823C106.884,292.6 107.138,292.302 107.661,291.881Z" style="fill:rgb(210,142,162);fill-rule:nonzero;"/>
    <path d="M83.265,136.98C79.221,137.292 77.052,135.547 75.778,131.546C74.989,129.069 72.721,127.005 70.929,124.917C66.895,120.216 62.745,115.616 58.254,110.928C62.318,103.008 66.771,95.135 71.5,87.08C73.064,87.688 74.462,88.346 75.623,89.294C80.707,93.447 85.631,97.803 90.84,101.789C91.855,102.566 93.877,102.026 95.802,102.097C95.801,103.159 95.433,104.217 94.695,105.799C92.797,110.494 91.269,114.664 89.475,119.062C88.531,121.516 87.853,123.743 86.967,126.278C85.595,130.052 84.43,133.516 83.265,136.98Z" style="fill:rgb(100,82,137);fill-rule:nonzero;"/>
    <path d="M98.874,96.077C98.441,98.001 97.586,99.908 96.417,101.98C96.658,100.029 94.176,96.739 98.874,96.077Z" style="fill:rgb(100,82,137);fill-rule:nonzero;"/>
    <path d="M229.692,349.334C229.792,349.099 229.937,348.87 230.081,348.64C230.094,348.825 230.107,349.009 229.939,349.31C229.759,349.427 229.736,349.341 229.692,349.334Z" style="fill:rgb(72,59,118);fill-rule:nonzero;"/>
    <path d="M137.012,201.587C137.346,201.106 137.685,200.984 138.415,201.18C138.869,201.996 138.931,202.493 138.947,203.266C138.701,204.041 138.501,204.541 137.974,205.033C137.431,205.044 137.214,205.064 136.997,205.085C136.997,205.085 137.008,204.947 137.034,204.883C137.046,203.861 137.031,202.903 137.012,201.587Z" style="fill:rgb(196,162,180);fill-rule:nonzero;"/>
    <path d="M351.161,290.952C353.112,288.15 355.442,285.409 357.986,282.053C359.001,280.662 359.8,279.886 360.6,279.11C361.557,278.371 362.514,277.631 363.771,276.816C361.331,282.175 358.591,287.61 355.565,293.245C354.033,292.635 352.786,291.824 351.161,290.952Z" style="fill:rgb(105,88,142);fill-rule:nonzero;"/>
    <path d="M364.038,218.092C362.898,218.666 361.757,219.239 359.876,219.925C353.613,220.491 348.468,219.525 343.986,215.79C343.969,215.574 343.949,215.141 343.931,214.771C342.612,211.733 341.121,210.445 338.695,213.896C336.921,214.682 335.452,215.297 333.865,215.759C333.527,215.82 333.307,216.035 332.927,216.459C332.272,216.808 331.777,216.95 331.014,217.14C330.491,217.437 330.238,217.686 329.982,217.969C329.98,218.002 329.918,217.977 329.763,218.042C329.408,218.212 329.246,218.358 328.802,218.716C326.986,219.59 325.49,220.295 323.694,221.018C322.933,221.372 322.473,221.706 321.848,222.281C320.949,222.723 320.216,222.925 319.196,223.165C318.605,223.636 318.301,224.068 317.727,224.655C317.056,224.899 316.654,224.988 315.988,225.134C315.478,225.445 315.234,225.699 314.99,225.98C314.99,226.008 314.941,225.983 314.78,226.048C314.41,226.218 314.244,226.369 313.817,226.73C312.977,227.298 312.44,227.702 311.567,228.113C310.155,228.428 309.079,228.737 308.001,228.644C307.969,227.438 307.939,226.632 308.044,225.626C308.421,225.197 308.707,225.058 309.392,225.003C310.487,224.303 311.227,223.608 311.966,222.696C311.965,222.479 312.028,222.049 312.272,222.062C312.516,222.076 312.999,221.997 313.254,222.038C313.68,222.092 313.852,222.104 314.136,222.267C314.505,222.238 314.761,222.057 315.162,221.834C315.308,221.792 315.602,221.867 315.898,221.825C316.451,221.497 316.709,221.212 316.979,220.961C316.992,220.995 316.929,220.96 317.151,220.887C317.659,220.659 317.858,220.428 318.277,219.946C321.385,218.173 324.189,216.578 327.342,214.945C330.121,213.593 332.551,212.278 335.251,210.985C335.7,211.009 335.88,211.011 336.345,210.991C337.08,210.664 337.53,210.36 338.35,209.917C339.196,206.851 339.671,203.923 340.491,200.92C341.21,199.547 341.584,198.248 341.972,196.979C341.987,197.008 341.932,196.973 342.193,196.825C342.638,196.126 342.822,195.574 342.995,194.72C342.963,194.014 342.943,193.61 342.85,192.943C342.491,192.471 342.205,192.263 341.958,192.059C341.997,192.064 341.936,192.114 341.861,191.871C341.53,191.413 341.276,191.198 341.066,190.646C342.04,189.876 342.97,189.443 343.982,189.172C344.064,189.332 344.122,189.688 344.198,189.988C344.621,190.484 344.966,190.681 345.591,190.875C346.24,190.899 346.611,190.925 347.147,191.187C347.876,190.962 348.44,190.502 349.337,189.949C350.783,189.577 351.895,189.298 353.283,189.303C356.877,189.99 360.194,190.392 363.512,190.793C364.583,191.334 365.654,191.875 366.891,193.015C367.481,194.04 367.904,194.465 368.327,194.89C368.596,194.99 368.8,195.166 369.066,195.866C369.443,196.547 369.692,196.779 369.942,197.011C370.306,197.778 370.67,198.545 370.745,199.909C370.666,203.399 370.875,206.293 371.084,209.186C371.084,209.186 371.044,209.604 370.621,209.846C368.144,212.755 366.091,215.424 364.038,218.092Z" style="fill:rgb(230,146,153);fill-rule:nonzero;"/>
    <path d="M353.283,189.303C355.035,188.731 357.063,188.444 359.499,188.165C360.999,188.852 362.093,189.529 363.349,190.5C360.194,190.392 356.877,189.99 353.283,189.303Z" style="fill:rgb(226,156,159);fill-rule:nonzero;"/>
    <path d="M364.376,218.027C366.091,215.424 368.144,212.755 370.541,210.04C368.828,212.649 366.771,215.306 364.376,218.027Z" style="fill:rgb(226,156,159);fill-rule:nonzero;"/>
    <path d="M275.998,116.998C281.411,121.111 286.825,125.223 292.833,129.644C299.54,132.079 305.652,134.206 311.781,136.732C311.867,138.752 311.937,140.374 311.956,142.462C311.969,148.627 312.035,154.325 312.038,160.004C311.976,159.984 311.846,159.978 311.538,159.992C310.821,160.027 310.41,160.048 309.711,159.896C296.61,148.812 283.798,137.9 270.887,126.77C270.598,126.278 270.343,126.093 270.014,125.997C270.006,125.995 270.01,125.977 270.012,125.526C269.693,119.997 269.371,114.92 269.339,110.015C271.752,112.458 273.875,114.728 275.998,116.998Z" style="fill:rgb(147,122,171);fill-rule:nonzero;"/>
    <path d="M202.265,108.125C204.487,110.444 206.407,112.646 208.607,115.035C210.394,118.006 211.899,120.791 213.702,124.072C214.271,124.78 214.542,124.99 214.813,125.2C214.813,125.2 214.764,125.189 214.842,125.551C219.88,134.295 224.84,142.679 229.495,151.251C227.073,153.643 217.623,155.107 215.397,153.511C214.913,153.164 214.263,152.382 214.369,151.979C215.503,147.645 211.674,147.66 209.538,145.885C203.767,141.089 197.365,136.518 193.208,130.484C189.929,125.724 187.683,120.844 181.635,119.251C180.883,119.053 180.124,118.488 179.599,117.89C174.803,112.422 169.419,107.197 171.336,98.728C172.766,98.371 173.874,98.131 174.981,97.89C180.075,98.864 185.169,99.839 190.647,100.824C194.675,103.227 198.319,105.618 202.265,108.125Z" style="fill:rgb(135,115,166);fill-rule:nonzero;"/>
    <path d="M138.3,205.042C138.501,204.541 138.701,204.041 139.36,203.254C140.545,201.584 141.606,200.273 141.919,198.802C142.357,196.748 142.238,194.576 142.423,191.266C144.196,193.603 145.07,194.755 145.902,195.852C146.603,195.782 147.105,195.788 147.578,195.676C154.723,193.982 155.169,194.354 158.291,201.025C159.027,202.597 161.22,204.589 162.651,204.519C166.484,204.331 170.739,203.938 173.924,202.081C176.592,200.526 177.987,196.789 180.15,194.04C180.355,194.062 180.765,194.078 180.818,194.537C180.963,200.005 181.055,205.015 181.067,210.483C181.038,215.958 181.089,220.973 181.061,226.36C181.048,227.482 181.114,228.234 181.087,229.443C180.979,234.264 180.963,238.627 180.834,243.359C180.617,244.748 180.513,245.767 180.057,246.863C179.114,246.18 178.23,245.506 177.981,244.648C175.777,237.066 172.246,230.34 165.943,225.199C165.908,225.104 165.725,225.025 165.699,224.844C165.55,224.418 165.352,224.303 164.875,224.189C164.673,224.061 164.212,223.932 164.077,223.697C163.634,223.283 163.328,223.104 162.88,222.658C161.887,221.907 161.036,221.424 160.049,220.717C159.611,220.331 159.309,220.168 159.004,220.002C159.002,219.998 158.993,219.994 158.835,219.738C158.115,219.34 157.553,219.198 156.684,218.888C152.222,217.202 148.068,215.685 143.71,214.091C143.507,214.015 143.072,214.023 142.797,213.965C142.334,213.918 142.147,213.928 141.687,213.719C140.466,213.475 139.519,213.45 138.567,213.068C138.396,211.803 138.23,210.896 138.063,209.989C138.136,208.92 138.209,207.852 138.302,206.158C138.324,205.534 138.3,205.042 138.3,205.042Z" style="fill:rgb(101,82,137);fill-rule:nonzero;"/>
    <path d="M179.946,194.018C177.987,196.789 176.592,200.526 173.924,202.081C170.739,203.938 166.484,204.331 162.651,204.519C161.22,204.589 159.027,202.597 158.291,201.025C155.169,194.354 154.723,193.982 147.578,195.676C147.105,195.788 146.603,195.782 145.902,195.852C145.07,194.755 144.196,193.603 142.423,191.266C142.238,194.576 142.357,196.748 141.919,198.802C141.606,200.273 140.545,201.584 139.406,202.979C138.931,202.493 138.869,201.996 138.682,201.143C138.573,198.498 138.588,196.208 138.644,193.053C138.578,186.773 138.472,181.36 138.492,175.538C138.722,173.417 138.826,171.707 139.257,170.121C140.86,168.823 142.135,167.4 144.001,165.319C144.001,169.148 143.996,172.67 144.002,176.192C144.012,182.293 145.939,184.31 151.702,182.765C160.308,180.456 166.767,182.571 171.746,190.016C173.36,192.429 175.917,193.929 179.287,192.143C179.668,192.885 179.807,193.451 179.946,194.018Z" style="fill:rgb(105,88,142);fill-rule:nonzero;"/>
    <path d="M312.028,222.049C312.028,222.049 311.965,222.479 311.652,222.753C310.571,223.688 309.804,224.348 309.037,225.008C308.707,225.058 308.421,225.197 307.677,225.673C303.178,227.632 299.181,229.343 294.797,231.034C292.899,230.114 291.182,229.44 289.909,228.278C283.213,222.165 277.021,215.451 267.869,212.731C264.296,211.669 265.183,209.227 267.356,206.792C268.158,204.955 268.941,203.32 268.994,201.661C269.194,195.449 269.156,189.229 269.601,183.021C271.281,183.343 272.579,183.968 273.849,183.915C278.412,183.723 280.969,185.577 281.724,190.243C281.943,191.598 283.23,193.292 284.477,193.881C291.105,197.017 297.874,199.857 304.61,202.762C304.814,202.85 305.197,202.524 305.214,202.517C306.179,194.088 307.127,185.802 308.076,177.517C308.415,177.599 308.754,177.681 309.092,177.763C309.992,180.512 310.891,183.262 311.862,186.428C311.903,188.244 311.872,189.646 311.599,191.305C311.525,193.363 311.693,195.163 311.929,197.363C311.944,198.841 311.891,199.919 311.462,201.101C309.81,204.917 308.415,208.638 311.941,212.45C312.074,215.61 312.142,218.323 312.128,221.282C312.039,221.702 312.034,221.876 312.028,222.049Z" style="fill:rgb(138,115,167);fill-rule:nonzero;"/>
    <path d="M295.184,231.055C299.181,229.343 303.178,227.632 307.542,225.873C307.939,226.632 307.969,227.438 307.796,228.913C303.342,232.018 299.091,234.452 294.496,236.95C288.435,240.038 282.718,243.061 276.671,246.192C269.594,249.614 262.848,252.929 256.037,255.885C255.005,255.02 254.037,254.514 253.262,253.738C258.644,250.653 263.833,247.839 269.374,244.983C278.212,240.313 286.698,235.684 295.184,231.055Z" style="fill:rgb(218,149,163);fill-rule:nonzero;"/>
    <path d="M342.778,187.239C343.091,187.665 343.405,188.091 343.809,188.764C342.97,189.443 342.04,189.876 340.988,190.72C340.865,191.132 340.71,191.281 340.408,191.149C336.077,187.665 332.048,184.312 327.839,180.688C325.742,178.952 323.827,177.487 321.78,175.718C318.415,172.884 315.182,170.356 311.927,167.617C311.906,167.407 311.925,166.985 312.185,166.836C313.272,165.854 314.099,165.022 315.235,164.299C318.674,166.955 321.803,169.502 324.932,172.05C326.383,173.287 327.835,174.524 329.732,176.203C334.378,180.176 338.578,183.707 342.778,187.239Z" style="fill:rgb(226,156,159);fill-rule:nonzero;"/>
    <path d="M294.839,236.887C299.091,234.452 303.342,232.018 307.797,229.314C309.079,228.737 310.155,228.428 311.567,228.113C310.908,233.445 309.914,238.783 308.573,244.521C307.881,244.973 307.534,245.027 306.852,244.937C302.623,242.158 298.731,239.522 294.839,236.887Z" style="fill:rgb(140,116,162);fill-rule:nonzero;"/>
    <path d="M343.931,214.771C342.542,214.729 341.134,214.318 339.363,213.816C341.121,210.445 342.612,211.733 343.931,214.771Z" style="fill:rgb(218,149,163);fill-rule:nonzero;"/>
    <path d="M340.491,200.92C340.574,199.778 341.003,198.561 341.694,197.147C341.584,198.248 341.21,199.547 340.491,200.92Z" style="fill:rgb(218,149,163);fill-rule:nonzero;"/>
    <path d="M309.392,225.003C309.804,224.348 310.571,223.688 311.653,222.971C311.227,223.608 310.487,224.303 309.392,225.003Z" style="fill:rgb(218,149,163);fill-rule:nonzero;"/>
    <path d="M347.147,191.187C347.459,190.65 347.937,190.349 348.709,190.044C348.44,190.502 347.876,190.962 347.147,191.187Z" style="fill:rgb(226,156,159);fill-rule:nonzero;"/>
    <path d="M336.345,210.991C336.507,210.695 336.955,210.377 337.691,210.057C337.53,210.36 337.08,210.664 336.345,210.991Z" style="fill:rgb(218,149,163);fill-rule:nonzero;"/>
    <path d="M342.193,196.825C342.125,196.43 342.318,195.886 342.759,195.183C342.822,195.574 342.638,196.126 342.193,196.825Z" style="fill:rgb(226,156,159);fill-rule:nonzero;"/>
    <path d="M323.694,221.018C323.532,221.333 323.069,221.666 322.31,222.02C322.473,221.706 322.933,221.372 323.694,221.018Z" style="fill:rgb(218,149,163);fill-rule:nonzero;"/>
    <path d="M319.196,223.165C319.163,223.563 318.845,223.999 318.262,224.468C318.301,224.068 318.605,223.636 319.196,223.165Z" style="fill:rgb(218,149,163);fill-rule:nonzero;"/>
    <path d="M315.898,221.825C315.876,221.608 316.149,221.35 316.695,221.009C316.709,221.212 316.451,221.497 315.898,221.825Z" style="fill:rgb(218,149,163);fill-rule:nonzero;"/>
    <path d="M314.136,222.267C314.184,222.055 314.344,221.994 314.761,221.904C314.761,222.057 314.505,222.238 314.136,222.267Z" style="fill:rgb(218,149,163);fill-rule:nonzero;"/>
    <path d="M317.151,220.887C317.02,220.635 317.214,220.393 317.742,220.178C317.858,220.428 317.659,220.659 317.151,220.887Z" style="fill:rgb(218,149,163);fill-rule:nonzero;"/>
    <path d="M315.988,225.134C316.004,225.328 315.756,225.578 315.248,225.891C315.234,225.699 315.478,225.445 315.988,225.134Z" style="fill:rgb(218,149,163);fill-rule:nonzero;"/>
    <path d="M314.78,226.048C314.86,226.23 314.706,226.415 314.299,226.553C314.244,226.369 314.41,226.218 314.78,226.048Z" style="fill:rgb(218,149,163);fill-rule:nonzero;"/>
    <path d="M341.861,191.871C341.754,192.129 341.572,192.143 341.1,191.949C340.811,191.741 340.71,191.281 340.71,191.281C340.71,191.281 340.865,191.132 340.943,191.058C341.276,191.198 341.53,191.413 341.861,191.871Z" style="fill:rgb(226,156,159);fill-rule:nonzero;"/>
    <path d="M344.198,189.988C344.414,189.926 344.706,190.164 345.155,190.64C344.966,190.681 344.621,190.484 344.198,189.988Z" style="fill:rgb(226,156,159);fill-rule:nonzero;"/>
    <path d="M333.865,215.759C333.982,215.913 333.552,216.126 333.32,216.188C333.307,216.035 333.527,215.82 333.865,215.759Z" style="fill:rgb(218,149,163);fill-rule:nonzero;"/>
    <path d="M331.014,217.14C331.024,217.335 330.766,217.578 330.246,217.878C330.238,217.686 330.491,217.437 331.014,217.14Z" style="fill:rgb(218,149,163);fill-rule:nonzero;"/>
    <path d="M329.763,218.042C329.854,218.228 329.708,218.414 329.3,218.541C329.246,218.358 329.408,218.212 329.763,218.042Z" style="fill:rgb(218,149,163);fill-rule:nonzero;"/>
    <path d="M342.85,192.943C342.651,192.986 342.38,192.766 342.014,192.3C342.205,192.263 342.491,192.471 342.85,192.943Z" style="fill:rgb(226,156,159);fill-rule:nonzero;"/>
    <path d="M180.057,246.863C180.207,248.134 180.004,249.481 179.802,250.828C178.999,250.411 178.197,249.995 177.175,249.29C175.515,246.759 174.075,244.515 172.19,241.817C168.542,238.23 165.338,235.097 162.524,231.975C164.535,231.67 166.158,231.355 167.829,231.031C167.057,228.641 166.517,226.968 165.977,225.294C172.246,230.34 175.777,237.066 177.981,244.648C178.23,245.506 179.114,246.18 180.057,246.863Z" style="fill:rgb(223,150,158);fill-rule:nonzero;"/>
    <path d="M162.524,231.975C160.984,231.293 159.833,230.622 158.355,229.872C156.507,228.67 154.986,227.547 152.992,226.174C152.265,225.716 152.067,225.463 151.977,224.799C153.683,222.949 155.338,221.467 157.326,219.991C158.104,219.996 158.549,219.995 158.993,219.994C158.993,219.994 159.002,219.998 159.131,220.233C159.569,220.625 159.877,220.783 160.185,220.941C161.036,221.424 161.887,221.907 162.998,222.907C163.576,223.593 163.894,223.763 164.212,223.932C164.212,223.932 164.673,224.061 164.955,224.328C165.377,224.764 165.54,224.907 165.725,225.025C165.725,225.025 165.908,225.104 165.943,225.199C166.517,226.968 167.057,228.641 167.829,231.031C166.158,231.355 164.535,231.67 162.524,231.975Z" style="fill:rgb(231,146,152);fill-rule:nonzero;"/>
    <path d="M312.166,161.942C312.945,162.55 313.724,163.159 314.714,163.979C314.099,165.022 313.272,165.854 312.033,166.599C311.085,165.994 310.549,165.477 309.966,164.642C309.272,163.887 308.625,163.45 307.676,162.866C297.206,154.091 287.09,145.399 276.83,136.88C274.484,134.932 271.642,133.582 268.656,131.856C266.085,133.49 263.886,135.224 261.331,136.966C260.261,136.899 259.548,136.824 258.78,136.382C258.824,135.036 258.924,134.057 259.321,132.909C262.425,128.945 268.263,126.217 264.461,120.02C266.537,122.038 268.273,124.007 270.01,125.977C270.01,125.977 270.006,125.995 270.106,126.221C270.396,126.728 270.656,126.908 270.986,126.988C283.798,137.9 296.61,148.812 309.761,160.22C310.789,161.125 311.478,161.533 312.166,161.942M268.424,130.73L268.525,130.477C268.525,130.477 268.292,130.54 268.424,130.73Z" style="fill:rgb(223,150,158);fill-rule:nonzero;"/>
    <path d="M270.012,125.526C268.273,124.007 266.537,122.038 264.394,119.566C263.949,115.367 263.911,111.67 263.873,107.974C264.04,106.532 264.208,105.09 264.502,102.564C266.145,104.763 267.239,106.227 268.609,107.878C268.926,108.46 268.968,108.855 269.029,109.545C269.371,114.92 269.693,119.997 270.012,125.526M265.734,115.184C265.621,115.027 265.509,114.871 265.397,114.714C265.419,114.932 265.441,115.15 265.734,115.184Z" style="fill:rgb(198,134,164);fill-rule:nonzero;"/>
    <path d="M312.119,161.613C311.478,161.533 310.789,161.125 310.05,160.392C310.41,160.048 310.821,160.027 311.538,159.992C311.921,160.413 311.996,160.849 312.119,161.613Z" style="fill:rgb(216,147,164);fill-rule:nonzero;"/>
    <path d="M270.887,126.77C270.656,126.908 270.396,126.728 270.114,126.223C270.343,126.093 270.598,126.278 270.887,126.77Z" style="fill:rgb(198,134,164);fill-rule:nonzero;"/>
    <path d="M229.495,151.251C231.224,153.194 232.649,155.326 233.762,157.763C226.203,157.466 219.138,157.454 213.828,164.164C213.374,164.869 213.184,165.426 212.998,165.992C213.001,166.001 212.983,165.996 212.629,166.057C211.749,166.89 211.263,167.693 210.689,168.426C208.548,171.16 201.228,171.858 201.398,169.65C201.85,163.778 196.103,161.665 194.788,157.124C193.361,152.195 189.973,151.451 185.476,152.078C185.076,151.92 184.92,151.744 184.855,151.131C182.586,148.17 180.293,145.585 177.995,142.628C176.887,140.302 176.213,137.832 174.6,136.494C169.924,132.613 164.841,129.227 159.973,125.573C153.244,120.522 153.272,120.504 146.129,124.751C145.791,124.951 145.182,124.695 144.887,124.668C144.098,122.953 143.375,121.38 142.653,119.808C142.829,119.292 143.005,118.776 143.794,118.099C146.509,117.364 148.612,116.79 151.258,116.067C149.951,113.948 149.046,112.481 148.142,111.014C148.705,110.524 149.268,110.034 149.963,109.281C152.614,106.996 155.134,104.974 157.877,102.733C162.129,101.275 166.158,100.037 170.6,98.822C169.419,107.197 174.803,112.422 179.599,117.89C180.124,118.488 180.883,119.053 181.635,119.251C187.683,120.844 189.929,125.724 193.208,130.484C197.365,136.518 203.767,141.089 209.538,145.885C211.674,147.66 215.503,147.645 214.369,151.979C214.263,152.382 214.913,153.164 215.397,153.511C217.623,155.107 227.073,153.643 229.495,151.251Z" style="fill:rgb(128,108,160);fill-rule:nonzero;"/>
    <path d="M142.442,120.056C143.375,121.38 144.098,122.953 144.887,124.668C145.182,124.695 145.791,124.951 146.129,124.751C153.272,120.504 153.244,120.522 159.973,125.573C164.841,129.227 169.924,132.613 174.6,136.494C176.213,137.832 176.887,140.302 177.995,143.054C178,147.9 178,151.948 177.993,156.359C176.618,157.57 174.68,159.465 173.98,159.084C170.986,157.454 168.474,154.966 165.564,153.147C162.469,151.212 159.298,148.995 155.849,148.111C148.196,146.15 144.451,142.293 143.957,134.498C143.915,133.821 143.541,133.166 142.839,131.043C142.147,134.579 141.755,136.58 141.137,139.737C140.134,136.978 139.596,135.499 138.996,133.606C139.297,130.459 139.661,127.727 140.024,124.995C140.213,124.798 140.344,124.569 140.437,124.116C141.048,122.717 141.639,121.51 142.442,120.056Z" style="fill:rgb(121,102,156);fill-rule:nonzero;"/>
    <path d="M147.872,111.225C149.046,112.481 149.951,113.948 151.258,116.067C148.612,116.79 146.509,117.364 143.992,117.907C144.918,115.729 146.26,113.583 147.872,111.225Z" style="fill:rgb(121,102,156);fill-rule:nonzero;"/>
    <path d="M151.977,224.799C148.495,223.602 145.065,222.037 141.3,220.416C140.966,220.359 140.963,220.165 140.85,219.858C140.528,219.293 140.26,219.144 139.931,219.105C139.931,219.105 139.883,219.143 139.903,218.754C140.602,216.89 141.281,215.414 141.96,213.939C142.147,213.928 142.334,213.918 142.85,214.122C143.178,214.337 143.585,214.495 143.585,214.495L143.914,214.167C148.068,215.685 152.222,217.202 156.685,219.12C156.994,219.52 156.993,219.985 156.993,219.985C155.338,221.467 153.683,222.949 151.977,224.799Z" style="fill:rgb(226,156,159);fill-rule:nonzero;"/>
    <path d="M181.201,192.961C181.142,193.152 181.084,193.344 180.895,193.807C180.765,194.078 180.355,194.062 180.15,194.04C179.807,193.451 179.668,192.885 179.273,191.678C179.022,184.035 179.028,177.032 179.427,169.999C180.082,169.961 180.344,169.954 180.76,170.295C181.009,172.443 181.106,174.242 181.13,176.501C181.106,182.294 181.153,187.627 181.201,192.961Z" style="fill:rgb(137,128,162);fill-rule:nonzero;"/>
    <path d="M141.687,213.719C141.281,215.414 140.602,216.89 139.874,218.746C139.32,217.428 138.817,215.73 138.442,213.729C139.519,213.45 140.466,213.475 141.687,213.719Z" style="fill:rgb(196,162,180);fill-rule:nonzero;"/>
    <path d="M157.326,219.991C156.993,219.985 156.994,219.52 156.992,219.288C157.553,219.198 158.115,219.34 158.835,219.738C158.549,219.995 158.104,219.996 157.326,219.991Z" style="fill:rgb(223,150,158);fill-rule:nonzero;"/>
    <path d="M164.077,223.697C163.894,223.763 163.576,223.593 163.14,223.175C163.328,223.104 163.634,223.283 164.077,223.697Z" style="fill:rgb(223,150,158);fill-rule:nonzero;"/>
    <path d="M165.699,224.844C165.54,224.907 165.377,224.764 165.157,224.455C165.352,224.303 165.55,224.418 165.699,224.844Z" style="fill:rgb(223,150,158);fill-rule:nonzero;"/>
    <path d="M143.71,214.091C143.914,214.167 143.585,214.495 143.585,214.495C143.585,214.495 143.178,214.337 143.125,214.18C143.072,214.023 143.507,214.015 143.71,214.091Z" style="fill:rgb(196,162,180);fill-rule:nonzero;"/>
    <path d="M160.049,220.717C159.877,220.783 159.569,220.625 159.134,220.236C159.309,220.168 159.611,220.331 160.049,220.717Z" style="fill:rgb(223,150,158);fill-rule:nonzero;"/>
    <path d="M140.019,219.326C140.26,219.144 140.528,219.293 140.838,219.762C140.61,219.933 140.333,219.791 140.019,219.326Z" style="fill:rgb(196,162,180);fill-rule:nonzero;"/>
    <path d="M179.034,170.03C179.028,177.032 179.022,184.035 179.03,191.503C175.917,193.929 173.36,192.429 171.746,190.016C166.767,182.571 160.308,180.456 151.702,182.765C145.939,184.31 144.012,182.293 144.002,176.192C143.996,172.67 144.001,169.148 144.001,165.319C142.135,167.4 140.86,168.823 139.17,169.699C138.827,167.434 138.898,165.716 139.387,163.983C140.536,162.747 141.79,161.571 141.898,160.297C142.191,156.829 141.946,153.318 142.02,149.827C142.065,147.742 142.309,145.662 142.463,143.58C143.77,144.944 144.047,146.218 143.972,147.471C143.601,153.634 143.355,159.449 150.724,162.369C155.43,164.234 159.5,168.321 164.269,169.223C168.55,170.034 173.397,167.856 177.998,167.339C178.346,168.464 178.69,169.247 179.034,170.03Z" style="fill:rgb(110,92,147);fill-rule:nonzero;"/>
    <path d="M310.014,164.96C310.549,165.477 311.085,165.994 311.773,166.748C311.925,166.985 311.906,167.407 311.897,168.077C311.964,171.157 312.04,173.567 312.057,176.43C311.929,179.926 311.859,182.969 311.79,186.012C310.891,183.262 309.992,180.512 309.092,177.763C308.754,177.681 308.415,177.599 308.076,177.517C307.127,185.802 306.179,194.088 305.214,202.517C305.197,202.524 304.814,202.85 304.61,202.762C297.874,199.857 291.105,197.017 284.477,193.881C283.23,193.292 281.943,191.598 281.724,190.243C280.969,185.577 278.412,183.723 273.849,183.915C272.579,183.968 271.281,183.343 269.523,182.585C268.978,180.082 268.906,178.023 268.909,175.504C268.891,169.714 268.798,164.384 268.802,158.591C268.863,152.738 268.827,147.35 268.858,141.514C268.96,138.03 268.994,134.993 269.029,131.957C271.642,133.582 274.484,134.932 276.83,136.88C287.09,145.399 297.206,154.091 307.799,163.131C308.82,164.015 309.417,164.487 310.014,164.96Z" style="fill:rgb(144,121,171);fill-rule:nonzero;"/>
    <path d="M294.797,231.034C286.698,235.684 278.212,240.313 269.363,244.728C268.996,244.344 268.993,244.174 268.954,243.642C266.103,238.905 264.901,233.538 259.273,231.003C255.907,229.486 252.593,226.651 250.636,223.541C248.633,220.358 248.316,216.116 247.127,211.856C242.985,212.248 238.917,212.634 234.613,212.747C233.913,210.652 233.449,208.827 232.988,206.631C232.91,205.524 232.831,204.788 232.814,203.682C232.284,201.489 231.693,199.667 231.1,197.408C230.931,194.943 230.764,192.913 230.703,190.589C230.816,189.877 230.822,189.459 231.108,188.81C238.527,187.537 241.233,182.286 243.443,176.147C244.247,175.947 244.709,175.841 245.372,175.931C245.948,176.538 246.323,176.949 246.823,177.674C250.596,183.683 254.243,189.378 258.027,195.388C261.111,199.462 264.057,203.223 267.002,206.983C265.183,209.227 264.296,211.669 267.869,212.731C277.021,215.451 283.213,222.165 289.909,228.278C291.182,229.44 292.899,230.114 294.797,231.034Z" style="fill:rgb(129,107,159);fill-rule:nonzero;"/>
    <path d="M311.462,201.101C311.933,203.691 312.027,206.386 312.203,209.523C312.2,210.418 312.115,210.872 311.954,211.664C308.415,208.638 309.81,204.917 311.462,201.101Z" style="fill:rgb(144,121,171);fill-rule:nonzero;"/>
    <path d="M311.599,191.305C311.92,191.493 312,191.938 312.163,192.713C312.171,194.091 312.095,195.14 311.941,196.576C311.693,195.163 311.525,193.363 311.599,191.305Z" style="fill:rgb(144,121,171);fill-rule:nonzero;"/>
    <path d="M252.875,276.868C249.49,278.524 246.105,280.179 242.364,281.927C237.633,280.35 233.257,278.682 228.541,276.976C227.496,275.537 226.792,274.136 225.971,271.998C223.48,261.961 226.199,256.302 235.315,251.879C235.658,251.445 235.788,251.144 235.842,250.471C235.521,248.062 235.277,246.024 235.288,243.785C236.362,242.718 237.181,241.853 238.025,241.427C237.867,250.405 238.467,251.133 245.832,251.093C247.075,251.848 248.051,252.487 249.141,253.326C249.466,253.772 249.731,253.921 250.024,253.986C249.999,253.998 250.016,253.945 250.182,254.208C251.228,254.333 252.108,254.196 252.996,254.027C253.004,253.994 253.069,254.009 253.069,254.009C254.037,254.514 255.005,255.02 255.842,256.105C255.519,257.774 255.327,258.864 255.1,260.368C256.838,266.485 255.8,271.805 252.875,276.868Z" style="fill:rgb(231,146,152);fill-rule:nonzero;"/>
    <path d="M255.135,259.954C255.327,258.864 255.519,257.774 255.906,256.464C262.848,252.929 269.594,249.614 276.671,246.569C278.908,249.059 281.093,251.098 282.671,253.53C287.996,261.732 293.484,259.215 298.385,254.437C300.87,252.014 303.892,250.14 306.672,248.019C303.85,251.382 301.029,254.746 297.73,258.508C296.832,259.041 296.411,259.176 295.743,259.235C295.289,259.419 295.082,259.681 294.594,260.068C293.522,260.766 292.732,261.339 291.572,261.993C286.118,263.172 281.033,264.27 275.519,265.264C269.737,264.013 264.384,262.864 258.833,261.471C257.468,260.802 256.302,260.378 255.135,259.954Z" style="fill:rgb(122,102,151);fill-rule:nonzero;"/>
    <path d="M306.825,247.674C303.892,250.14 300.87,252.014 298.385,254.437C293.484,259.215 287.996,261.732 282.671,253.53C281.093,251.098 278.908,249.059 277.001,246.462C282.718,243.061 288.435,240.038 294.496,236.95C298.731,239.522 302.623,242.158 306.852,244.937C307.119,245.83 307.049,246.58 306.825,247.674Z" style="fill:rgb(128,106,157);fill-rule:nonzero;"/>
    <path d="M249.027,253.125C248.051,252.487 247.075,251.848 245.728,250.737C243.841,247.636 242.325,245.006 241.009,242.065C245.717,240.852 249.914,241.121 254.177,243.415C256.721,244.784 259.981,245.104 262.957,245.291C264.933,245.416 266.976,244.471 268.989,244.004C268.993,244.174 268.996,244.344 269.011,244.769C263.833,247.839 258.644,250.653 253.262,253.738C253.069,254.009 253.004,253.994 252.625,254.019C251.503,254.011 250.759,253.978 250.016,253.945C250.016,253.945 249.999,253.998 249.918,253.776C249.632,253.288 249.362,253.146 249.027,253.125Z" style="fill:rgb(115,96,151);fill-rule:nonzero;"/>
    <path d="M261.331,136.966C260.97,137.877 260.254,138.796 259.261,139.443C258.953,138.409 258.922,137.648 258.89,136.886C258.89,136.886 258.848,136.824 258.841,136.787C259.548,136.824 260.261,136.899 261.331,136.966Z" style="fill:rgb(226,161,165);fill-rule:nonzero;"/>
    <path d="M309.966,164.642C309.417,164.487 308.82,164.015 308.101,163.277C308.625,163.45 309.272,163.887 309.966,164.642Z" style="fill:rgb(216,147,164);fill-rule:nonzero;"/>
    <path d="M265.599,115.276C265.441,115.15 265.419,114.932 265.397,114.714C265.509,114.871 265.621,115.027 265.599,115.276Z" style="fill:rgb(223,150,158);fill-rule:nonzero;"/>
    <path d="M252.058,148.148C250.923,149.674 249.787,151.2 248.117,152.987C247.41,153.561 247.237,153.875 247.065,154.19C246.427,155.244 245.79,156.299 244.736,157.805C241.976,160.371 240.291,162.686 241.675,166.266C241.974,169.753 242.537,172.997 243.101,176.241C241.233,182.286 238.527,187.537 230.917,188.937C230.497,189.826 230.547,190.355 230.597,190.884C230.764,192.913 230.931,194.943 231.062,197.806C230.316,199.793 229.607,200.948 228.91,202.094C228.922,202.085 228.919,202.056 228.949,201.715C228.666,200.585 228.352,199.796 227.965,198.647C227.611,196.856 227.331,195.424 227.294,193.796C227.082,192.404 226.629,191.208 225.957,189.735C212.617,182.684 209.967,177.809 212.983,165.996C212.983,165.996 213.001,166.001 213.245,165.829C213.69,165.11 213.891,164.563 214.092,164.015C219.138,157.454 226.203,157.466 233.957,158.063C240.019,161.941 240.444,155.976 243.202,153.264C244.335,152.184 245.066,151.556 246.073,150.843C246.573,150.45 246.796,150.143 247.205,149.578C248.629,147.57 249.865,145.819 251.362,144.311C251.767,145.753 251.913,146.95 252.058,148.148Z" style="fill:rgb(230,148,157);fill-rule:nonzero;"/>
    <path d="M212.629,166.057C209.967,177.809 212.617,182.684 225.912,190.08C226.407,191.798 226.73,192.895 227.052,193.992C227.331,195.424 227.611,196.856 227.946,198.983C228.308,200.471 228.613,201.264 228.919,202.056C228.919,202.056 228.922,202.085 228.896,202.409C228.908,203.155 228.947,203.577 228.984,204.397C229.116,205.846 229.251,206.896 229.334,208.315C229.815,210.803 230.348,212.922 230.901,215.474C231.206,218.789 231.491,221.671 231.515,224.328C229.931,222.372 228.607,220.64 227.159,218.578C225.101,215.456 223.168,212.664 221.1,209.545C217.997,204.446 215.028,199.674 211.98,194.584C210.96,192.836 210.019,191.404 208.974,189.642C205.937,184.872 203.003,180.43 200.016,175.643C198.376,172.53 196.789,169.765 195.483,166.952C195.936,166.432 196.108,165.959 196.28,165.487C195.788,165.778 195.297,166.069 194.546,166.173C193.505,165.004 192.724,164.021 191.881,162.728C190.975,161.26 190.131,160.101 189.19,158.601C187.947,156.214 186.798,154.168 185.65,152.122C189.973,151.451 193.361,152.195 194.788,157.124C196.103,161.665 201.85,163.778 201.398,169.65C201.228,171.858 208.548,171.16 210.689,168.426C211.263,167.693 211.749,166.89 212.629,166.057Z" style="fill:rgb(124,104,153);fill-rule:nonzero;"/>
    <path d="M177.999,155.996C178,151.948 178,147.9 178,143.427C180.293,145.585 182.586,148.17 184.497,151.069C180.619,151.163 181.15,153.996 180.281,156.013C179.303,156.008 178.651,156.002 177.999,155.996Z" style="fill:rgb(124,104,153);fill-rule:nonzero;"/>
    <path d="M213.828,164.164C213.891,164.563 213.69,165.11 213.242,165.82C213.184,165.426 213.374,164.869 213.828,164.164Z" style="fill:rgb(124,104,153);fill-rule:nonzero;"/>
    <path d="M180.281,156.013C180.687,156.763 180.769,157.513 180.876,158.898C180.786,160.067 180.671,160.6 180.17,161.125C176.422,163.047 178.575,164.07 180.547,165.497C180.59,166.592 180.531,167.328 180.141,167.972C179.206,167.586 178.6,167.291 177.995,166.997C173.397,167.856 168.55,170.034 164.269,169.223C159.5,168.321 155.43,164.234 150.724,162.369C143.355,159.449 143.601,153.634 143.972,147.471C144.047,146.218 143.77,144.944 142.463,143.58C142.309,145.662 142.065,147.742 142.02,149.827C141.946,153.318 142.191,156.829 141.898,160.297C141.79,161.571 140.536,162.747 139.387,163.983C138.876,162.613 138.784,161.229 138.601,159.437C138.562,153.652 138.614,148.275 138.576,142.436C138.608,139.613 138.731,137.249 138.956,134.453C139.596,135.499 140.134,136.978 141.137,139.737C141.755,136.58 142.147,134.579 142.839,131.043C143.541,133.166 143.915,133.821 143.957,134.498C144.451,142.293 148.196,146.15 155.849,148.111C159.298,148.995 162.469,151.212 165.564,153.147C168.474,154.966 170.986,157.454 173.98,159.084C174.68,159.465 176.618,157.57 177.993,156.359C178.651,156.002 179.303,156.008 180.281,156.013Z" style="fill:rgb(115,96,151);fill-rule:nonzero;"/>
    <path d="M180.141,167.972C180.533,168.48 180.595,168.896 180.632,169.629C180.344,169.954 180.082,169.961 179.427,169.999C178.69,169.247 178.346,168.464 177.998,167.339C178.6,167.291 179.206,167.586 180.141,167.972Z" style="fill:rgb(105,88,142);fill-rule:nonzero;"/>
    <path d="M268.954,243.642C266.976,244.471 264.933,245.416 262.957,245.291C259.981,245.104 256.721,244.784 254.177,243.415C249.914,241.121 245.717,240.852 240.766,241.861C239.593,240.977 238.864,239.985 238.114,238.633C237.484,236.804 236.874,235.336 236.255,233.757C236.244,233.645 236.066,233.503 236.306,233.323C236.68,232.775 236.814,232.407 236.962,231.605C236.226,225.783 235.474,220.396 234.772,214.679C234.831,213.906 234.84,213.463 234.849,213.019C238.917,212.634 242.985,212.248 247.127,211.856C248.316,216.116 248.633,220.358 250.636,223.541C252.593,226.651 255.907,229.486 259.273,231.003C264.901,233.538 266.103,238.905 268.954,243.642Z" style="fill:rgb(121,100,154);fill-rule:nonzero;"/>
    <path d="M234.613,212.747C234.84,213.463 234.831,213.906 234.395,214.676C232.939,215.015 231.909,215.028 230.88,215.04C230.348,212.922 229.815,210.803 229.641,208.327C230.995,207.647 231.99,207.325 232.986,207.002C233.449,208.827 233.913,210.652 234.613,212.747Z" style="fill:rgb(210,142,162);fill-rule:nonzero;"/>
    <path d="M241.675,166.266C242.972,169.014 244.004,172.005 245.103,175.366C244.709,175.841 244.247,175.947 243.443,176.147C242.537,172.997 241.974,169.753 241.675,166.266Z" style="fill:rgb(226,161,165);fill-rule:nonzero;"/>
    <path d="M232.988,206.631C231.99,207.325 230.995,207.647 229.693,207.957C229.251,206.896 229.116,205.846 229.364,204.394C230.748,204.013 231.75,204.032 232.752,204.052C232.831,204.788 232.91,205.524 232.988,206.631Z" style="fill:rgb(230,148,157);fill-rule:nonzero;"/>
    <path d="M232.814,203.682C231.75,204.032 230.748,204.013 229.367,203.996C228.947,203.577 228.908,203.155 228.883,202.418C229.607,200.948 230.316,199.793 231.063,198.242C231.693,199.667 232.284,201.489 232.814,203.682Z" style="fill:rgb(210,142,162);fill-rule:nonzero;"/>
    <path d="M230.703,190.589C230.547,190.355 230.497,189.826 230.638,189.169C230.822,189.459 230.816,189.877 230.703,190.589Z" style="fill:rgb(210,142,162);fill-rule:nonzero;"/>
    <path d="M238.114,238.633C238.121,239.438 238.105,239.883 238.046,240.658C237.181,241.853 236.362,242.718 235.288,243.785C234.726,243.888 234.488,243.701 234.207,242.804C233.835,239.439 233.573,236.7 233.676,233.969C234.783,233.941 235.524,233.905 236.265,233.868C236.874,235.336 237.484,236.804 238.114,238.633Z" style="fill:rgb(226,161,165);fill-rule:nonzero;"/>
    <path d="M250.182,254.208C250.759,253.978 251.503,254.011 252.617,254.051C252.108,254.196 251.228,254.333 250.182,254.208Z" style="fill:rgb(218,149,163);fill-rule:nonzero;"/>
    <path d="M249.141,253.326C249.362,253.146 249.632,253.288 249.944,253.764C249.731,253.921 249.466,253.772 249.141,253.326Z" style="fill:rgb(218,149,163);fill-rule:nonzero;"/>
    <path d="M235.315,251.879C235.184,251.693 235.334,251.41 235.735,251.002C235.788,251.144 235.658,251.445 235.315,251.879Z" style="fill:rgb(226,161,165);fill-rule:nonzero;"/>
    <path d="M251.361,144.311C251.337,143.556 251.572,143.046 251.88,142.262C254.028,140.243 256.102,138.497 258.534,136.818C258.922,137.648 258.953,138.409 258.981,139.55C256.867,142.554 254.759,145.18 252.354,147.976C251.913,146.95 251.767,145.753 251.361,144.311Z" style="fill:rgb(223,150,158);fill-rule:nonzero;"/>
    <path d="M247.295,154.054C247.237,153.875 247.41,153.561 247.834,153.136C247.9,153.323 247.713,153.621 247.295,154.054Z" style="fill:rgb(226,161,165);fill-rule:nonzero;"/>
    <path d="M227.294,193.796C226.73,192.895 226.407,191.798 226.13,190.357C226.629,191.208 227.082,192.404 227.294,193.796Z" style="fill:rgb(210,142,162);fill-rule:nonzero;"/>
    <path d="M228.949,201.715C228.613,201.264 228.308,200.471 228.021,199.343C228.352,199.796 228.666,200.585 228.949,201.715Z" style="fill:rgb(210,142,162);fill-rule:nonzero;"/>
    <path d="M246.073,150.843C246.026,150.632 246.255,150.336 246.751,149.937C246.796,150.143 246.573,150.45 246.073,150.843Z" style="fill:rgb(226,161,165);fill-rule:nonzero;"/>
    <path d="M233.676,233.969C233.124,232.375 232.938,230.788 232.82,228.462C232.611,227.15 232.333,226.577 231.999,225.763C231.855,225.204 231.799,224.881 231.776,224.552C231.491,221.671 231.206,218.789 230.901,215.474C231.909,215.028 232.939,215.015 234.345,215.006C235.474,220.396 236.226,225.783 236.72,231.778C236.329,232.758 236.198,233.13 236.066,233.503C236.066,233.503 236.244,233.645 236.255,233.757C235.524,233.905 234.783,233.941 233.676,233.969Z" style="fill:rgb(215,146,158);fill-rule:nonzero;"/>
    <path d="M195.483,166.952C195.201,166.999 194.901,166.742 194.853,166.551C195.297,166.069 195.788,165.778 196.28,165.487C196.108,165.959 195.936,166.432 195.483,166.952Z" style="fill:rgb(128,108,160);fill-rule:nonzero;"/>
    <path d="M180.17,161.125C180.572,162.204 180.588,163.274 180.525,164.742C178.575,164.07 176.422,163.047 180.17,161.125Z" style="fill:rgb(110,92,147);fill-rule:nonzero;"/>
    <path d="M236.306,233.323C236.198,233.13 236.329,232.758 236.704,232.212C236.814,232.407 236.68,232.775 236.306,233.323Z" style="fill:rgb(226,161,165);fill-rule:nonzero;"/>
    <path d="M231.976,227.292C231.895,226.87 231.934,226.698 232.014,226.266C232.333,226.577 232.611,227.15 232.837,228.063C232.555,228.117 232.325,227.829 231.976,227.292Z" style="fill:rgb(226,161,165);fill-rule:nonzero;"/>
</svg>
