<?xml version="1.0" encoding="UTF-8"?>
<svg version="1.1" xmlns="http://www.w3.org/2000/svg" width="82" height="88" viewBox="0 0 82 88">
<path d="M0 0 C8.53950492 0.67743559 16.74090346 2.63146407 25.0625 4.5625 C26.51486863 4.89564182 27.96734189 5.22832783 29.41992188 5.56054688 C32.94783638 6.36844641 36.47429496 7.18250521 40 8 C40.93423645 11.01031744 41.04449911 11.86650268 40 15 C38.96746094 14.76925781 37.93492188 14.53851563 36.87109375 14.30078125 C24.25745248 11.48735141 11.63059022 8.73623377 -1 6 C-0.67 4.02 -0.34 2.04 0 0 Z " fill="currentColor" transform="translate(21,40)"/>
<path d="M0 0 C5.337883 0.60492546 10.53741961 1.45100071 15.78125 2.62890625 C16.48020386 2.78286362 17.17915771 2.93682098 17.89929199 3.09544373 C20.10029629 3.58106365 22.30014881 4.07168597 24.5 4.5625 C26.00513456 4.89551588 27.51034232 5.22820112 29.015625 5.56054688 C32.67793936 6.36988375 36.33923067 7.18370441 40 8 C40.93423645 11.01031744 41.04449911 11.86650268 40 15 C38.96746094 14.76925781 37.93492188 14.53851563 36.87109375 14.30078125 C24.25745248 11.48735141 11.63059022 8.73623377 -1 6 C-0.67 4.02 -0.34 2.04 0 0 Z " fill="currentColor" transform="translate(24,27)"/>
<path d="M0 0 C8.6909331 0.69566657 17.07615143 2.65801312 25.5625 4.5625 C27.06305516 4.89561449 28.56370554 5.22830035 30.06445312 5.56054688 C33.71074678 6.36875778 37.35571664 7.18276619 41 8 C40.67 9.98 40.34 11.96 40 14 C31.38311815 12.67696245 22.92198099 10.93356279 14.4375 8.9375 C13.27669922 8.66873047 12.11589844 8.39996094 10.91992188 8.12304688 C2.44522201 6.14840734 2.44522201 6.14840734 -1 5 C-0.67 3.35 -0.34 1.7 0 0 Z " fill="currentColor" transform="translate(18,53)"/>
<path d="M0 0 C1.65 0.33 3.3 0.66 5 1 C4.67 3.97 4.34 6.94 4 10 C2.35 10.33 0.7 10.66 -1 11 C-2.60080151 6.99799622 -1.29279692 3.95443764 0 0 Z " fill="currentColor" transform="translate(33,69)"/>
<path d="M0 0 C1.98 0 3.96 0 6 0 C5.67 2.97 5.34 5.94 5 9 C1 10 1 10 -1 9 C-0.67 6.03 -0.34 3.06 0 0 Z " fill="currentColor" transform="translate(45,15)"/>
</svg>
